<svg width="95" height="124" viewBox="0 0 95 124" fill="none" xmlns="http://www.w3.org/2000/svg">
<path d="M7.14133 65.9466L7.47862 67.4082L7.50176 67.4028L7.52471 67.3967L7.14133 65.9466ZM6.84718 65.7655L5.37782 66.0672L5.38149 66.0851L5.38559 66.1028L6.84718 65.7655ZM6.49645 64.0572L7.96581 63.7555L7.96214 63.7377L7.95804 63.7199L6.49645 64.0572ZM6.66616 63.7743L7.00345 65.2359L7.02658 65.2306L7.04954 65.2245L6.66616 63.7743ZM7.91067 60.4481L8.63829 61.7598L8.6422 61.7576L7.91067 60.4481ZM6.93769 53.5015L7.30149 54.9567L7.32574 54.9506L7.34977 54.9438L6.93769 53.5015ZM7.22053 53.6712L8.69571 53.3994L8.68964 53.3665L8.68212 53.3339L7.22053 53.6712ZM7.53731 55.3909L6.06213 55.6626L6.0682 55.6955L6.07573 55.7282L7.53731 55.3909ZM7.35629 55.685L7.01901 54.2234L7.01037 54.2254L7.00177 54.2275L7.35629 55.685ZM6.91506 58.5021L6.18951 57.1892L6.17926 57.195L6.91506 58.5021ZM17.4263 53.7383L18.8703 53.3322L18.8606 53.2978L18.8493 53.2639L17.4263 53.7383ZM17.5621 53.4215L18.1005 54.8215L18.1306 54.8099L18.1601 54.7971L17.5621 53.4215ZM19.1233 52.7427L18.5849 51.3427L18.5548 51.3542L18.5253 51.3671L19.1233 52.7427ZM19.4401 52.8784L17.9978 53.2905L17.9998 53.2974L19.4401 52.8784ZM16.3062 49.7445L16.8447 48.3445L16.7816 48.3202L16.7166 48.3017L16.3062 49.7445ZM16.442 50.0613L17.8176 50.6594L17.8304 50.6299L17.842 50.5998L16.442 50.0613ZM15.7632 51.6226L14.3876 51.0245L14.3747 51.0541L14.3632 51.0841L15.7632 51.6226ZM15.4464 51.7584L15.8585 50.3161L15.8478 50.3131L15.8372 50.3102L15.4464 51.7584ZM16.1769 47.7016L17.2376 46.641L17.2376 46.641L16.1769 47.7016ZM16.1769 47.3622L17.2376 48.4229L17.2376 48.4229L16.1769 47.3622ZM17.4214 46.1177L16.3608 45.057L16.3608 45.057L17.4214 46.1177ZM18.0889 46.0611L16.59 46.0056L16.5889 46.0334V46.0611H18.0889ZM19.6389 43.7418L20.3097 45.0835L20.3301 45.0733L20.3501 45.0625L19.6389 43.7418ZM19.9444 43.8663L21.3469 43.3343L21.3356 43.3046L21.3231 43.2754L19.9444 43.8663ZM20.5666 45.5068L21.9897 45.0324L21.98 45.0034L21.9691 44.9748L20.5666 45.5068ZM20.4309 45.8235L19.7601 44.4819L19.7346 44.4946L19.7096 44.5083L20.4309 45.8235ZM23.0783 51.7746L24.1389 52.8352L24.1389 52.8352L23.0783 51.7746ZM21.8338 53.0191L20.7731 51.9584L20.7731 51.9584L21.8338 53.0191ZM21.4944 53.0191L20.4337 54.0797L20.4337 54.0797L21.4944 53.0191ZM24.8964 34.1172L25.9571 35.1779L25.9571 35.1779L24.8964 34.1172ZM26.1409 32.8727L25.0803 31.812L25.0803 31.812L26.1409 32.8727ZM34.0605 40.7923L35.1212 41.853L35.1212 41.853L34.0605 40.7923ZM32.816 42.0368L31.7554 40.9761L31.7554 40.9761L32.816 42.0368ZM46.5864 28.2664L47.6471 29.3271L47.6471 29.3271L46.5864 28.2664ZM45.3419 29.5109L44.2812 28.4503L44.2812 28.4503L45.3419 29.5109ZM44.6178 29.5336L43.127 29.3679L43.1259 29.3777L44.6178 29.5336ZM39.6398 24.5555L39.4741 23.0647L39.4667 23.0655L39.4593 23.0664L39.6398 24.5555ZM39.7529 24.2614L38.6923 25.322L38.6923 25.322L39.7529 24.2614ZM37.4223 21.9308L38.483 20.8701L38.483 20.8701L37.4223 21.9308ZM48.8024 15.1214L49.5574 13.8252L49.5466 13.819L48.8024 15.1214ZM48.7571 14.782L49.8178 15.8427L49.8178 15.8427L48.7571 14.782ZM50.0016 13.5375L48.941 12.4768L48.941 12.4768L50.0016 13.5375ZM50.3297 13.5035L49.558 14.7898L49.5676 14.7955L49.5773 14.8012L50.3297 13.5035ZM54.1538 15.721L53.4013 17.0186L53.4022 17.0192L54.1538 15.721ZM54.3461 15.5061L55.6443 14.7545L55.6418 14.7503L54.3461 15.5061ZM52.1286 11.7047L53.4243 10.9489L53.4196 10.9409L53.4149 10.9329L52.1286 11.7047ZM52.1626 11.3766L51.1019 10.3159L51.1019 10.3159L52.1626 11.3766ZM53.2713 10.2678L54.332 11.3285L54.332 11.3285L53.2713 10.2678ZM53.5994 10.2339L52.8276 11.5201L52.8372 11.5259L52.8469 11.5315L53.5994 10.2339ZM57.4234 12.4514L56.671 13.749L56.6719 13.7495L57.4234 12.4514ZM57.6158 12.2364L58.9139 11.4849L58.9114 11.4806L57.6158 12.2364ZM55.3983 8.435L56.6939 7.6792L56.6893 7.6712L56.6845 7.66326L55.3983 8.435ZM55.4322 8.10691L56.4929 9.16757L56.4929 9.16757L55.4322 8.10691ZM56.6767 6.8624L55.6161 5.80174L55.6161 5.80174L56.6767 6.8624ZM57.0161 6.90765L55.7137 7.65189L55.72 7.66265L57.0161 6.90765ZM60.9307 13.628L59.6345 14.383L59.6394 14.3914L59.6444 14.3997L60.9307 13.628ZM59.0526 15.5061L59.8243 14.2198L59.8156 14.2146L59.8068 14.2095L59.0526 15.5061ZM55.5906 13.4922L56.3448 12.1956L56.3422 12.1941L55.5906 13.4922ZM55.387 13.6959L54.0888 14.4474L54.0904 14.4501L55.387 13.6959ZM57.4008 17.1579L56.1042 17.9121L56.1093 17.9209L56.1146 17.9296L57.4008 17.1579ZM57.3669 17.486L56.3062 16.4253L56.3062 16.4253L57.3669 17.486ZM55.8508 19.002L56.9115 20.0627L56.9115 20.0627L55.8508 19.002ZM55.5227 19.0359L56.2945 17.7497L56.2861 17.7447L56.2777 17.7398L55.5227 19.0359ZM57.7305 6.14804L56.6698 7.2087L56.6698 7.2087L57.7305 6.14804ZM57.7305 5.80863L58.7912 6.86929L58.7912 6.86929L57.7305 5.80863ZM58.975 4.56412L57.9143 3.50346L57.9143 3.50347L58.975 4.56412ZM59.3144 4.56412L58.2538 5.62478L58.2538 5.62479L59.3144 4.56412ZM59.3823 4.63201L60.443 3.57135L60.443 3.57134L59.3823 4.63201ZM59.6764 4.51887L61.1673 4.68452L61.1684 4.67395L61.1695 4.66336L59.6764 4.51887ZM64.9486 2.68605L63.888 3.74671L63.888 3.74671L64.9486 2.68605ZM68.388 6.12542L69.4487 5.06476L69.4487 5.06476L68.388 6.12542ZM68.388 6.46483L69.4487 7.52549L69.4487 7.52549L68.388 6.46483ZM67.1435 7.70934L66.0828 6.64867L66.0828 6.64868L67.1435 7.70934ZM66.8041 7.70934L65.7434 8.77L65.7434 8.77L66.8041 7.70934ZM63.3647 4.26997L64.4254 3.20931L64.4254 3.20931L63.3647 4.26997ZM61.9166 7.16628L62.9772 6.10562L62.9772 6.10562L61.9166 7.16628ZM64.6319 9.88157L63.5712 10.9422L63.5712 10.9422L64.6319 9.88157ZM64.6319 10.221L65.6925 11.2816L65.6925 11.2816L64.6319 10.221ZM63.3873 11.4655L62.3267 10.4048L62.3267 10.4048L63.3873 11.4655ZM63.0479 11.4655L64.1086 10.4048L64.1086 10.4048L63.0479 11.4655ZM33.6562 67.7272L32.5956 68.7879L32.5956 68.7879L33.6562 67.7272ZM27.2187 65.9284L26.1581 66.989L26.1581 66.989L27.2187 65.9284ZM26.3137 65.0233L27.3743 63.9626L27.3743 63.9626L26.3137 65.0233ZM26.3137 64.6838L27.3743 65.7445L27.3743 65.7445L26.3137 64.6838ZM26.7096 64.2879L25.649 63.2272L25.649 63.2272L26.7096 64.2879ZM26.7096 63.9485L25.6371 64.9971L25.643 65.0032L25.649 65.0091L26.7096 63.9485ZM25.6461 60.5317L24.2484 59.9873L24.2472 59.9905L25.6461 60.5317ZM28.2257 58.4726L28.6764 59.9033L28.7208 59.8893L28.7641 59.8726L28.2257 58.4726ZM28.5085 58.6423L29.9749 58.3265L29.9726 58.3157L29.9701 58.305L28.5085 58.6423ZM28.8253 60.1131L27.3589 60.4289L27.3612 60.4397L27.3637 60.4504L28.8253 60.1131ZM28.6443 60.4073L28.2322 58.965L28.2252 58.967L28.2181 58.9691L28.6443 60.4073ZM27.5468 61.12L28.9396 61.6771L28.9559 61.6362L28.9699 61.5944L27.5468 61.12ZM28.633 62.3645L27.5723 61.3039L27.5723 61.3039L28.633 62.3645ZM29.6286 61.3689L30.6892 62.4296L30.6892 62.4296L29.6286 61.3689ZM29.968 61.3689L31.0286 60.3083L31.0286 60.3083L29.968 61.3689ZM30.8731 62.274L29.8124 63.3347L29.8124 63.3347L30.8731 62.274ZM29.8775 63.9485L30.9381 62.8878L30.9381 62.8878L29.8775 63.9485ZM37.4564 53.2922L36.3958 54.3528L36.3958 54.3528L37.4564 53.2922ZM37.4564 52.9528L36.3958 51.8921L36.3958 51.8921L37.4564 52.9528ZM38.7009 51.7083L39.7616 52.7689L39.7616 52.7689L38.7009 51.7083ZM39.3684 51.6517L37.8695 51.5962L37.8684 51.6239V51.6517H39.3684ZM40.9184 49.3324L41.5892 50.674L41.6096 50.6639L41.6296 50.6531L40.9184 49.3324ZM41.2239 49.4568L42.6264 48.9248L42.6151 48.8951L42.6026 48.866L41.2239 49.4568ZM41.8461 51.0973L43.2692 50.623L43.2595 50.5939L43.2486 50.5653L41.8461 51.0973ZM41.7104 51.4141L41.0396 50.0725L41.0141 50.0852L40.9891 50.0989L41.7104 51.4141ZM42.7739 58.6096L43.8345 57.549L43.8345 57.549L42.7739 58.6096ZM52.3065 45.7281L53.7505 45.322L53.7409 45.2876L53.7296 45.2537L52.3065 45.7281ZM52.4423 45.4113L52.9808 46.8113L53.0108 46.7997L53.0404 46.7869L52.4423 45.4113ZM54.0036 44.7325L53.4651 43.3325L53.4351 43.344L53.4055 43.3569L54.0036 44.7325ZM54.3204 44.8682L52.8781 45.2803L52.8801 45.2872L54.3204 44.8682ZM51.1865 41.7343L51.725 40.3343L51.6618 40.3101L51.5968 40.2916L51.1865 41.7343ZM51.3222 42.0511L52.6979 42.6492L52.7107 42.6197L52.7223 42.5896L51.3222 42.0511ZM50.6434 43.6124L49.2678 43.0143L49.255 43.0439L49.2434 43.0739L50.6434 43.6124ZM50.3266 43.7482L50.7387 42.3059L50.7281 42.3029L50.7174 42.3L50.3266 43.7482ZM62.3399 23.5438L63.4006 24.6044L63.4006 24.6044L62.3399 23.5438ZM63.5844 22.2992L62.5238 21.2386L62.5238 21.2386L63.5844 22.2992ZM63.9239 22.2992L62.8632 23.3599L62.8632 23.3599L63.9239 22.2992ZM71.5041 29.8794L72.5647 28.8188L72.5647 28.8188L71.5041 29.8794ZM71.5041 30.2188L72.5647 31.2795L72.5647 31.2795L71.5041 30.2188ZM70.2595 31.4634L69.1989 30.4027L69.1989 30.4027L70.2595 31.4634ZM52.7371 75.2449L53.2756 73.8449L53.2545 73.8368L53.2332 73.8293L52.7371 75.2449ZM52.8729 75.5617L54.2516 76.1525L54.2628 76.1265L54.2729 76.1001L52.8729 75.5617ZM50.9948 77.666L50.4794 76.2573L50.4711 76.2604L50.4628 76.2635L50.9948 77.666ZM45.3153 74.6792L46.376 75.7399L46.376 75.7399L45.3153 74.6792ZM44.908 75.0865L43.8474 74.0258L43.8474 74.0258L44.908 75.0865ZM44.5686 75.0865L45.6293 74.0258L45.6293 74.0258L44.5686 75.0865ZM43.5504 74.0683L42.4897 75.1289L42.4897 75.1289L43.5504 74.0683ZM43.9577 72.9821L42.897 74.0428L42.897 74.0428L43.9577 72.9821ZM42.5208 71.5453L43.5815 70.4846L43.5815 70.4846L42.5208 71.5453ZM44.1048 69.9614L45.1654 68.9007L45.1654 68.9007L44.1048 69.9614ZM45.5416 71.3982L44.4809 72.4589L44.4809 72.4589L45.5416 71.3982ZM48.0532 71.9413L46.9926 70.8806L46.9926 70.8806L48.0532 71.9413ZM47.2387 72.7559L48.2993 73.8165L48.2993 73.8165L47.2387 72.7559ZM50.3386 75.6748L50.1404 74.188L50.1282 74.1896L50.1161 74.1914L50.3386 75.6748ZM51.108 74.9281L52.483 75.5275L52.4962 75.4973L52.508 75.4666L51.108 74.9281ZM51.4134 74.781L51.9095 73.3654L51.8987 73.3616L51.8878 73.358L51.4134 74.781ZM47.6217 65.4714L48.6824 64.4108L48.6824 64.4108L47.6217 65.4714ZM49.9524 67.8021L48.8917 68.8627L48.8917 68.8627L49.9524 67.8021ZM50.2465 67.6889L51.7373 67.8546L51.7385 67.844L51.7395 67.8334L50.2465 67.6889ZM55.5187 65.8561L56.5794 64.7954L56.5794 64.7954L55.5187 65.8561ZM58.9581 69.2955L57.8974 70.3561L57.8974 70.3561L58.9581 69.2955ZM57.3742 70.8794L58.4348 69.8187L58.4348 69.8187L57.3742 70.8794ZM53.9348 67.44L52.8741 68.5007L52.8741 68.5007L53.9348 67.44ZM52.4866 70.3363L51.426 71.397L51.426 71.397L52.4866 70.3363ZM55.2019 73.0516L56.2626 71.991L56.2626 71.991L55.2019 73.0516ZM55.2019 73.391L54.1413 72.3304L54.1413 72.3304L55.2019 73.391ZM53.9574 74.6355L55.0181 75.6962L55.0181 75.6962L53.9574 74.6355ZM56.4915 61.1271L57.5522 60.0665L57.5522 60.0665L56.4915 61.1271ZM61.809 66.4446L60.7483 67.5052L60.7483 67.5052L61.809 66.4446ZM61.809 66.784L62.8696 67.8447L62.8696 67.8447L61.809 66.784ZM60.5644 68.0285L59.5038 66.9678L59.5038 66.9678L60.5644 68.0285ZM52.6448 60.1089L53.7055 61.1696L53.7055 61.1696L52.6448 60.1089ZM53.8894 58.8644L52.8287 57.8037L52.8287 57.8037L53.8894 58.8644ZM54.2288 58.8644L55.2894 57.8037L55.2894 57.8037L54.2288 58.8644ZM55.4733 60.1089L54.4126 61.1696L54.4126 61.1696L55.4733 60.1089ZM55.4733 60.4483L54.4126 59.3877L54.4126 59.3877L55.4733 60.4483ZM54.2288 61.6928L55.2894 62.7535L55.2894 62.7535L54.2288 61.6928ZM57.7581 59.8605L56.6975 60.9212L56.6975 60.9212L57.7581 59.8605ZM59.7041 58.2314L61.1949 58.397L61.1961 58.3864L61.1971 58.3758L59.7041 58.2314ZM61.9442 60.8788L60.8835 61.9394L60.8835 61.9394L61.9442 60.8788ZM64.6595 63.5941L65.7201 62.5334L65.7201 62.5334L64.6595 63.5941ZM64.6595 63.9335L65.7201 64.9941L65.7201 64.9941L64.6595 63.9335ZM63.415 65.178L62.3543 64.1173L62.3543 64.1173L63.415 65.178ZM63.0756 65.178L64.1362 64.1173L64.1362 64.1173L63.0756 65.178ZM68.3702 49.4521L68.1095 47.9749L68.0973 47.9771L68.0852 47.9794L68.3702 49.4521ZM68.5173 49.1919L69.5779 48.1312L69.5779 48.1312L68.5173 49.1919ZM68.472 49.1466L67.4114 50.2073L67.4114 50.2073L68.472 49.1466ZM68.472 48.8072L67.4114 47.7466L67.4114 47.7466L68.472 48.8072ZM69.7165 47.5627L70.7772 48.6234L70.7772 48.6234L69.7165 47.5627ZM70.9724 60.0191L71.0571 58.5215L71.0148 58.5191H70.9724V60.0191ZM70.7461 59.7702L72.2417 59.8852L72.2436 59.8594L72.2447 59.8335L70.7461 59.7702ZM70.814 58.1637L69.3184 58.0486L69.3164 58.0744L69.3153 58.1003L70.814 58.1637ZM71.0629 57.9374L70.8507 59.4223L70.9239 59.4328L70.9977 59.436L71.0629 57.9374ZM73.2917 54.3736L71.8145 54.1129L71.814 54.1156L73.2917 54.3736ZM75.8851 51.4633L76.0973 52.9482L76.1518 52.9404L76.2057 52.9286L75.8851 51.4633ZM75.6136 51.2596L74.1266 51.4565L74.1276 51.4641L74.1287 51.4718L75.6136 51.2596ZM75.41 49.721L73.9144 49.836L73.9175 49.877L73.9229 49.9178L75.41 49.721ZM75.6023 49.4608L75.8489 50.9404L75.8814 50.9349L75.9136 50.9281L75.6023 49.4608ZM76.7676 47.4582L75.8731 46.2541L75.8623 46.2621L75.8517 46.2704L76.7676 47.4582ZM76.0209 42.2087L76.433 43.651L76.4971 43.6326L76.5594 43.6087L76.0209 42.2087ZM76.3151 42.3671L77.7748 42.0216L77.7668 41.9881L77.7574 41.955L76.3151 42.3671ZM76.6658 43.8492L78.1274 43.5119L78.1255 43.5037L76.6658 43.8492ZM76.4961 44.132L76.1588 42.6704L76.1115 42.6813L76.0651 42.6953L76.4961 44.132ZM75.6476 45.9083L76.5451 47.1101L76.552 47.105L76.5587 47.0998L75.6476 45.9083ZM82.4394 123.061C83.0251 123.646 83.9749 123.646 84.5607 123.061L94.1066 113.515C94.6924 112.929 94.6924 111.979 94.1066 111.393C93.5208 110.808 92.5711 110.808 91.9853 111.393L83.5 119.879L75.0147 111.393C74.429 110.808 73.4792 110.808 72.8934 111.393C72.3076 111.979 72.3076 112.929 72.8934 113.515L82.4394 123.061ZM6.80404 64.485C7.02648 64.4336 7.38107 64.4283 7.73402 64.644C8.09166 64.8626 8.25369 65.1896 8.30876 65.4283L5.38559 66.1028C5.47461 66.4886 5.71017 66.9231 6.16964 67.2038C6.62442 67.4818 7.1091 67.4934 7.47862 67.4082L6.80404 64.485ZM8.31653 65.4639L7.96581 63.7555L5.0271 64.3588L5.37782 66.0672L8.31653 65.4639ZM7.95804 63.7199C7.99574 63.8833 8.03391 64.247 7.80632 64.6339C7.56938 65.0367 7.20802 65.1887 7.00345 65.2359L6.32887 62.3127C5.97721 62.3939 5.51403 62.6138 5.22053 63.1128C4.93637 63.5959 4.96322 64.084 5.03487 64.3945L7.95804 63.7199ZM7.04954 65.2245C7.99248 64.9752 9.84566 64.4811 11.1322 63.1945L9.01092 61.0732C8.37417 61.7099 7.30842 62.053 6.28278 62.3242L7.04954 65.2245ZM11.1322 63.1945C11.8091 62.5176 12.2988 61.7418 12.3561 60.861C12.417 59.9269 11.9724 59.2433 11.5622 58.8331L9.44084 60.9544C9.45344 60.967 9.42997 60.9476 9.40425 60.891C9.37429 60.825 9.35745 60.7431 9.36247 60.666C9.3671 60.595 9.3863 60.5886 9.34789 60.6584C9.30705 60.7326 9.21234 60.8718 9.01092 61.0732L11.1322 63.1945ZM11.5622 58.8331C11.315 58.5859 10.9901 58.3707 10.5771 58.2572C10.1806 58.1482 9.79094 58.1569 9.43805 58.217C8.77542 58.3298 8.03032 58.6631 7.17914 59.1386L8.6422 61.7576C9.02045 61.5463 9.31276 61.4032 9.53719 61.3093C9.76553 61.2138 9.89111 61.183 9.94144 61.1745C9.98736 61.1667 9.91587 61.1867 9.78177 61.1498C9.63105 61.1084 9.51269 61.0262 9.44084 60.9544L11.5622 58.8331ZM7.18304 59.1364C5.78867 59.9099 4.97518 60.0717 4.51759 60.055C4.14626 60.0414 3.88054 59.9082 3.55206 59.5798L1.43074 61.7011C2.13181 62.4022 3.07665 63.0044 4.40803 63.053C5.65316 63.0985 7.03452 62.6494 8.63829 61.7598L7.18304 59.1364ZM3.55206 59.5798C3.35902 59.3867 3.17214 59.0286 3.1987 58.5329C3.22451 58.0516 3.46318 57.3097 4.35533 56.4176L2.23401 54.2963C0.931305 55.599 0.276198 57.0068 0.203004 58.3724C0.130574 59.7237 0.63949 60.9098 1.43074 61.7011L3.55206 59.5798ZM4.35533 56.4176C5.20106 55.5719 6.43434 55.1735 7.30149 54.9567L6.57388 52.0463C5.63084 52.282 3.69628 52.834 2.23401 54.2963L4.35533 56.4176ZM7.34977 54.9438C7.17769 54.9929 6.75635 55.0571 6.32045 54.7797C5.90802 54.5172 5.78958 54.1413 5.75894 54.0085L8.68212 53.3339C8.61753 53.054 8.43687 52.5706 7.9311 52.2487C7.40186 51.9119 6.85608 51.9648 6.5256 52.0592L7.34977 54.9438ZM5.74535 53.9429L6.06213 55.6626L9.01249 55.1191L8.69571 53.3994L5.74535 53.9429ZM6.07573 55.7282C6.0244 55.5057 6.01907 55.1512 6.23476 54.7982C6.45332 54.4406 6.78033 54.2785 7.01901 54.2234L7.69358 57.1466C8.07933 57.0576 8.51383 56.822 8.79461 56.3625C9.07253 55.9078 9.08417 55.4231 8.9989 55.0536L6.07573 55.7282ZM7.00177 54.2275C6.15426 54.4337 4.75041 54.8346 3.76136 55.8236L5.88268 57.9449C6.22866 57.599 6.8839 57.3437 7.71082 57.1425L7.00177 54.2275ZM3.76136 55.8236C3.12716 56.4578 2.67139 57.1483 2.52433 57.8958C2.36566 58.7024 2.5956 59.4718 3.1278 60.004L5.24912 57.8827C5.34257 57.9762 5.41183 58.0918 5.44789 58.2159C5.48424 58.3411 5.47567 58.4354 5.46791 58.4749C5.45662 58.5323 5.47603 58.3516 5.88268 57.9449L3.76136 55.8236ZM3.1278 60.004C3.33737 60.2136 3.63206 60.4574 4.03625 60.616C4.4543 60.7801 4.87963 60.8106 5.28959 60.7577C6.01394 60.6644 6.79746 60.2897 7.65086 59.8093L6.17926 57.195C5.77746 57.4212 5.47909 57.5702 5.25479 57.6649C5.02536 57.7618 4.92359 57.7801 4.906 57.7824C4.9026 57.7828 4.92751 57.7793 4.97301 57.784C5.02073 57.7889 5.07598 57.8013 5.13226 57.8234C5.24548 57.8678 5.28844 57.922 5.24912 57.8827L3.1278 60.004ZM7.64059 59.815C8.83947 59.1525 9.64721 58.9237 10.1741 58.902C10.6198 58.8837 10.8879 59.0074 11.1379 59.2573L13.2592 57.136C12.4118 56.2885 11.3279 55.8521 10.0511 55.9046C8.85547 55.9536 7.57017 56.4263 6.18953 57.1893L7.64059 59.815ZM11.1379 59.2573C11.4326 59.552 11.6472 59.9867 11.6419 60.4933C11.6369 60.9781 11.4272 61.7116 10.5383 62.6005L12.6596 64.7219C13.9882 63.3932 14.627 61.9433 14.6418 60.5245C14.6563 59.1276 14.062 57.9388 13.2592 57.136L11.1379 59.2573ZM10.5383 62.6005C9.40212 63.7367 7.73997 64.2368 6.75795 64.4964L7.52471 67.3967C8.51128 67.1359 10.8994 66.482 12.6596 64.7219L10.5383 62.6005ZM18.8493 53.2639C18.9003 53.4169 18.9616 53.7258 18.8221 54.0887C18.6671 54.4917 18.3565 54.723 18.1005 54.8215L17.0236 52.0215C16.6205 52.1765 16.2195 52.4984 16.022 53.0117C15.84 53.4849 15.907 53.9239 16.0033 54.2126L18.8493 53.2639ZM18.1601 54.7971L19.7214 54.1183L18.5253 51.3671L16.964 52.0459L18.1601 54.7971ZM19.6618 54.1427C19.54 54.1895 19.1991 54.2906 18.7814 54.13C18.2983 53.9441 18.0726 53.552 17.9978 53.2905L20.8824 52.4664C20.7624 52.0464 20.4518 51.5582 19.8584 51.3299C19.3305 51.1269 18.8538 51.2392 18.5849 51.3427L19.6618 54.1427ZM17.9998 53.2974C18.2115 54.0249 18.0881 55.0055 17.2255 55.8681L19.3468 57.9894C20.9959 56.3403 21.3929 54.221 20.8804 52.4594L17.9998 53.2974ZM17.2255 55.8681C16.061 57.0325 14.4765 57.0393 13.3166 55.8794L11.1953 58.0007C13.5426 60.348 17.0266 60.3096 19.3468 57.9894L17.2255 55.8681ZM13.3166 55.8794C12.148 54.7108 12.1608 53.1376 13.3279 51.9705L11.2066 49.8492C8.88909 52.1667 8.83399 55.6394 11.1953 58.0007L13.3166 55.8794ZM13.3279 51.9705C14.1918 51.1066 15.1762 50.9826 15.8959 51.1873L16.7166 48.3017C14.9699 47.805 12.8544 48.2014 11.2066 49.8492L13.3279 51.9705ZM15.7678 51.1446C15.5793 51.0721 15.2472 50.8766 15.068 50.4511C14.8941 50.038 14.9806 49.6823 15.042 49.5228L17.842 50.5998C17.9599 50.2932 18.0521 49.8075 17.8329 49.2869C17.6085 48.7539 17.1802 48.4736 16.8447 48.3445L15.7678 51.1446ZM15.0664 49.4632L14.3876 51.0245L17.1388 52.2207L17.8176 50.6594L15.0664 49.4632ZM14.3632 51.0841C14.4295 50.9115 14.6263 50.5562 15.0794 50.3725C15.4765 50.2115 15.7983 50.2989 15.8585 50.3161L15.0343 53.2007C15.2529 53.2631 15.7048 53.3561 16.2065 53.1527C16.7643 52.9266 17.0402 52.4808 17.1632 52.1611L14.3632 51.0841ZM15.8372 50.3102C15.2679 50.1566 14.6651 50.1266 14.0593 50.2981C13.4587 50.4681 12.9667 50.8044 12.5642 51.2068L14.6855 53.3282C14.7512 53.2625 14.7997 53.2267 14.8297 53.2078C14.8582 53.19 14.8728 53.1857 14.8762 53.1847C14.8792 53.1839 14.8881 53.1814 14.9098 53.1818C14.9334 53.1822 14.9801 53.1862 15.0556 53.2066L15.8372 50.3102ZM12.5642 51.2068C11.8439 51.9272 11.465 52.8678 11.5361 53.8712C11.6052 54.8469 12.0862 55.7238 12.7792 56.4168L14.9005 54.2955C14.5979 53.9929 14.5358 53.761 14.5286 53.6591C14.5233 53.5849 14.5347 53.479 14.6855 53.3282L12.5642 51.2068ZM12.7792 56.4168C13.4806 57.1182 14.3634 57.5963 15.3411 57.6604C16.343 57.7262 17.2772 57.3437 17.9891 56.6318L15.8678 54.5104C15.7199 54.6583 15.6133 54.6718 15.5375 54.6669C15.4376 54.6603 15.206 54.6009 14.9005 54.2955L12.7792 56.4168ZM17.9891 56.6318C18.3914 56.2295 18.7304 55.7349 18.8987 55.1272C19.0685 54.5144 19.0316 53.9058 18.8703 53.3322L15.9823 54.1444C16.0045 54.2233 16.0091 54.2717 16.0097 54.2957C16.0103 54.3176 16.0079 54.3253 16.0076 54.3264C16.0072 54.3279 16.0037 54.3408 15.9868 54.3679C15.9687 54.3969 15.9336 54.4447 15.8678 54.5104L17.9891 56.6318ZM17.2376 46.641C17.4277 46.8311 17.6006 47.1399 17.6006 47.5319C17.6006 47.9239 17.4277 48.2327 17.2376 48.4229L15.1163 46.3015C14.8243 46.5935 14.6006 47.0211 14.6006 47.5319C14.6006 48.0427 14.8243 48.4703 15.1163 48.7623L17.2376 46.641ZM17.2376 48.4229L18.4821 47.1784L16.3608 45.057L15.1163 46.3015L17.2376 48.4229ZM18.4821 47.1784C18.292 47.3685 17.9831 47.5413 17.5911 47.5413C17.1992 47.5413 16.8903 47.3685 16.7002 47.1784L18.8215 45.057C18.5296 44.7651 18.1019 44.5413 17.5911 44.5413C17.0804 44.5413 16.6527 44.7651 16.3608 45.057L18.4821 47.1784ZM16.7002 47.1784L16.7567 47.2349L18.8781 45.1136L18.8215 45.057L16.7002 47.1784ZM16.7567 47.2349C16.938 47.4162 17.6571 48.0317 18.5992 47.6279C19.5203 47.2332 19.5889 46.3133 19.5889 46.0611H16.5889C16.5889 46.0126 16.5953 45.2228 17.4175 44.8705C18.2605 44.5092 18.8439 45.0794 18.8781 45.1136L16.7567 47.2349ZM19.5879 46.1166C19.5967 45.8802 19.6689 45.6295 19.9642 45.3342L17.8429 43.2129C17.0068 44.049 16.6265 45.0201 16.59 46.0056L19.5879 46.1166ZM19.9642 45.3342C20.0766 45.2218 20.1826 45.147 20.3097 45.0835L18.9681 42.4002C18.5522 42.6081 18.183 42.8728 17.8429 43.2129L19.9642 45.3342ZM20.3501 45.0625C20.2381 45.1228 19.7848 45.3312 19.2305 45.0937C18.7412 44.884 18.5795 44.4895 18.5657 44.4571L21.3231 43.2754C21.2414 43.0847 21.0005 42.5883 20.4122 42.3362C19.7589 42.0562 19.1869 42.2816 18.9278 42.4211L20.3501 45.0625ZM18.5419 44.3982L19.1641 46.0387L21.9691 44.9748L21.3469 43.3343L18.5419 44.3982ZM19.1436 45.9811C19.0784 45.7854 19.0353 45.4621 19.1842 45.1085C19.3321 44.7571 19.589 44.5674 19.7601 44.4819L21.1017 47.1652C21.4085 47.0118 21.7559 46.7315 21.9491 46.2727C22.1432 45.8117 22.1002 45.3639 21.9897 45.0324L19.1436 45.9811ZM19.7096 44.5083C18.7433 45.0382 17.905 45.9256 17.9607 47.2134C18.0074 48.2927 18.6931 49.1713 19.3023 49.7805L21.4237 47.6592C21.207 47.4425 21.0769 47.2721 21.0061 47.1518C20.9347 47.0303 20.9549 47.0137 20.9579 47.0839C20.9596 47.1221 20.9551 47.1705 20.9398 47.2212C20.9247 47.2714 20.9052 47.3035 20.8963 47.316C20.8836 47.3337 20.9304 47.2604 21.1521 47.1388L19.7096 44.5083ZM19.3023 49.7805L22.0176 52.4958L24.1389 50.3745L21.4237 47.6592L19.3023 49.7805ZM22.0176 52.4958C21.8275 52.3057 21.6547 51.9968 21.6547 51.6048C21.6547 51.2129 21.8275 50.904 22.0176 50.7139L24.1389 52.8352C24.4309 52.5433 24.6547 52.1156 24.6547 51.6048C24.6547 51.0941 24.4309 50.6664 24.1389 50.3745L22.0176 52.4958ZM22.0176 50.7139L20.7731 51.9584L22.8944 54.0797L24.1389 52.8352L22.0176 50.7139ZM20.7731 51.9584C20.9632 51.7683 21.2721 51.5954 21.6641 51.5954C22.056 51.5954 22.3649 51.7683 22.555 51.9584L20.4337 54.0797C20.7256 54.3717 21.1533 54.5954 21.6641 54.5954C22.1748 54.5954 22.6025 54.3717 22.8944 54.0797L20.7731 51.9584ZM22.555 51.9584L17.2376 46.641L15.1163 48.7623L20.4337 54.0797L22.555 51.9584ZM28.5295 46.0914C29.2459 45.3751 29.6065 44.4329 29.5252 43.4391C29.4463 42.4738 28.9652 41.6001 28.2692 40.9041L26.1479 43.0254C26.4588 43.3363 26.5265 43.5771 26.5352 43.6837C26.5416 43.7619 26.529 43.8493 26.4081 43.9701L28.5295 46.0914ZM28.2692 40.9041C27.5865 40.2213 26.7243 39.7327 25.7559 39.655C24.7538 39.5746 23.8196 39.9515 23.1045 40.6665L25.2259 42.7878C25.3706 42.6431 25.4603 42.6409 25.516 42.6454C25.6055 42.6526 25.8351 42.7126 26.1479 43.0254L28.2692 40.9041ZM23.1045 40.6665C22.3845 41.3866 22.0063 42.3258 22.0747 43.3258C22.1413 44.2993 22.618 45.175 23.3082 45.8652L25.4295 43.7438C25.1354 43.4497 25.0747 43.2223 25.0677 43.121C25.0626 43.0462 25.0747 42.939 25.2259 42.7878L23.1045 40.6665ZM23.3082 45.8652C23.9989 46.5559 24.8719 47.0473 25.8516 47.1218C26.8637 47.1989 27.8062 46.8147 28.5295 46.0914L26.4081 43.9701C26.2489 44.1293 26.1449 44.1355 26.0793 44.1305C25.9814 44.123 25.7457 44.0601 25.4295 43.7438L23.3082 45.8652ZM27.7658 45.3278C26.5685 46.5251 25.0067 46.4889 23.8456 45.3278L21.7243 47.4491C24.0251 49.7499 27.4866 49.8496 29.8871 47.4491L27.7658 45.3278ZM23.8456 45.3278C22.6909 44.1731 22.6984 42.6 23.8682 41.4302L21.7469 39.3089C19.4321 41.6237 19.3716 45.0965 21.7243 47.4491L23.8456 45.3278ZM23.8682 41.4302C25.0401 40.2583 26.5792 40.2888 27.7318 41.4415L29.8532 39.3202C27.5665 37.0335 24.1275 36.9282 21.7469 39.3089L23.8682 41.4302ZM27.7318 41.4415C28.9163 42.626 28.8944 44.1992 27.7658 45.3278L29.8871 47.4491C32.1979 45.1383 32.1986 41.6656 29.8532 39.3202L27.7318 41.4415ZM25.9571 33.396C26.1472 33.5861 26.3201 33.8949 26.3201 34.2869C26.3201 34.6789 26.1472 34.9878 25.9571 35.1779L23.8358 33.0566C23.5438 33.3485 23.3201 33.7761 23.3201 34.2869C23.3201 34.7977 23.5438 35.2253 23.8358 35.5173L25.9571 33.396ZM25.9571 35.1779L27.2016 33.9334L25.0803 31.812L23.8358 33.0566L25.9571 35.1779ZM27.2016 33.9334C27.0115 34.1235 26.7026 34.2963 26.3106 34.2963C25.9187 34.2963 25.6098 34.1235 25.4197 33.9334L27.541 31.812C27.2491 31.5201 26.8214 31.2963 26.3106 31.2963C25.7999 31.2963 25.3722 31.5201 25.0803 31.812L27.2016 33.9334ZM25.4197 33.9334L32.9999 41.5135L35.1212 39.3922L27.541 31.812L25.4197 33.9334ZM32.9999 41.5135C32.8098 41.3234 32.6369 41.0146 32.6369 40.6226C32.6369 40.2306 32.8098 39.9218 32.9999 39.7316L35.1212 41.853C35.4131 41.561 35.6369 41.1334 35.6369 40.6226C35.6369 40.1118 35.4131 39.6842 35.1212 39.3922L32.9999 41.5135ZM32.9999 39.7316L31.7554 40.9761L33.8767 43.0975L35.1212 41.853L32.9999 39.7316ZM31.7554 40.9761C31.9455 40.786 32.2543 40.6132 32.6463 40.6132C33.0383 40.6132 33.3472 40.786 33.5373 40.9761L31.416 43.0975C31.7079 43.3894 32.1356 43.6132 32.6463 43.6132C33.1571 43.6132 33.5847 43.3894 33.8767 43.0975L31.7554 40.9761ZM33.5373 40.9761L25.9571 33.396L23.8358 35.5173L31.416 43.0975L33.5373 40.9761ZM28.8076 30.5454C28.9977 30.7356 29.1706 31.0444 29.1706 31.4364C29.1706 31.8284 28.9977 32.1372 28.8076 32.3273L26.6863 30.206C26.3943 30.498 26.1706 30.9256 26.1706 31.4364C26.1706 31.9472 26.3943 32.3748 26.6863 32.6668L28.8076 30.5454ZM28.8076 32.3273L30.0521 31.0828L27.9308 28.9615L26.6863 30.206L28.8076 32.3273ZM30.0521 31.0828C29.862 31.273 29.5531 31.4458 29.1612 31.4458C28.7692 31.4458 28.4603 31.273 28.2702 31.0828L30.3915 28.9615C30.0996 28.6696 29.6719 28.4458 29.1612 28.4458C28.6504 28.4458 28.2227 28.6696 27.9308 28.9615L30.0521 31.0828ZM28.2702 31.0828L35.8504 38.663L37.9717 36.5417L30.3915 28.9615L28.2702 31.0828ZM35.8504 38.663C35.6603 38.4729 35.4874 38.1641 35.4874 37.7721C35.4874 37.3801 35.6603 37.0712 35.8504 36.8811L37.9717 39.0024C38.2637 38.7105 38.4874 38.2828 38.4874 37.7721C38.4874 37.2613 38.2637 36.8336 37.9717 36.5417L35.8504 38.663ZM35.8504 36.8811L34.6059 38.1256L36.7272 40.2469L37.9717 39.0024L35.8504 36.8811ZM34.6059 38.1256C34.796 37.9355 35.1049 37.7627 35.4968 37.7627C35.8888 37.7627 36.1977 37.9355 36.3878 38.1256L34.2665 40.2469C34.5584 40.5389 34.9861 40.7627 35.4968 40.7627C36.0076 40.7627 36.4353 40.5389 36.7272 40.2469L34.6059 38.1256ZM36.3878 38.1256L28.8076 30.5454L26.6863 32.6668L34.2665 40.2469L36.3878 38.1256ZM39.7275 21.4075C39.5373 21.5976 39.2285 21.7705 38.8365 21.7705C38.4445 21.7705 38.1357 21.5976 37.9456 21.4075L40.0669 19.2862C39.7749 18.9942 39.3473 18.7705 38.8365 18.7705C38.3257 18.7705 37.8981 18.9942 37.6061 19.2862L39.7275 21.4075ZM37.9456 21.4075L45.5257 28.9877L47.6471 26.8664L40.0669 19.2862L37.9456 21.4075ZM45.5257 28.9877C45.3356 28.7976 45.1628 28.4887 45.1628 28.0968C45.1628 27.7048 45.3356 27.3959 45.5257 27.2058L47.6471 29.3271C47.939 29.0351 48.1628 28.6075 48.1628 28.0967C48.1628 27.5859 47.939 27.1583 47.6471 26.8664L45.5257 28.9877ZM45.5257 27.2058L44.2812 28.4503L46.4026 30.5716L47.6471 29.3271L45.5257 27.2058ZM44.2812 28.4503C44.4713 28.2602 44.7802 28.0873 45.1722 28.0873C45.5642 28.0873 45.873 28.2602 46.0631 28.4503L43.9418 30.5716C44.2338 30.8635 44.6614 31.0873 45.1722 31.0873C45.683 31.0873 46.1106 30.8635 46.4026 30.5716L44.2812 28.4503ZM46.0631 28.4503L45.9726 28.3598L43.8513 30.4811L43.9418 30.5716L46.0631 28.4503ZM45.9726 28.3598C45.7695 28.1566 45.0716 27.5836 44.1547 27.9554C43.3076 28.2988 43.1554 29.1125 43.127 29.3679L46.1086 29.6992C46.1029 29.751 46.0242 30.4346 45.2818 30.7356C44.4695 31.0649 43.9074 30.5371 43.8513 30.4811L45.9726 28.3598ZM43.1259 29.3777C43.0807 29.8109 42.9059 30.1877 42.6068 30.4867L44.7281 32.6081C45.5378 31.7984 45.9966 30.7722 46.1097 29.6894L43.1259 29.3777ZM42.6068 30.4867C41.862 31.2316 40.3037 31.4024 39.0373 30.136L36.916 32.2573C39.1795 34.5208 42.6445 34.6917 44.7281 32.6081L42.6068 30.4867ZM39.0373 30.136C37.8011 28.8998 37.9216 27.3768 38.7092 26.5892L36.5879 24.4679C34.434 26.6218 34.7129 30.0542 36.916 32.2573L39.0373 30.136ZM38.7092 26.5892C39.0245 26.2739 39.404 26.0951 39.8203 26.0446L39.4593 23.0664C38.3822 23.197 37.3814 23.6744 36.5879 24.4679L38.7092 26.5892ZM39.8054 26.0464C40.0609 26.018 40.8746 25.8657 41.218 25.0187C41.5897 24.1017 41.0167 23.4039 40.8136 23.2007L38.6923 25.322C38.6362 25.266 38.1085 24.7039 38.4378 23.8916C38.7387 23.1492 39.4224 23.0705 39.4741 23.0647L39.8054 26.0464ZM40.8136 23.2007L38.483 20.8701L36.3616 22.9914L38.6923 25.322L40.8136 23.2007ZM38.483 20.8701C38.6731 21.0602 38.8459 21.3691 38.8459 21.761C38.8459 22.153 38.6731 22.4619 38.483 22.652L36.3616 20.5307C36.0697 20.8226 35.8459 21.2503 35.8459 21.7611C35.8459 22.2718 36.0697 22.6995 36.3616 22.9914L38.483 20.8701ZM38.483 22.652L39.7275 21.4075L37.6061 19.2862L36.3616 20.5307L38.483 22.652ZM43.7665 30.8544C44.5318 30.0891 44.8648 29.1124 44.6943 28.0949C44.5388 27.1669 43.9959 26.3831 43.3931 25.7802L41.2718 27.9016C41.6306 28.2604 41.7214 28.5061 41.7355 28.5907C41.737 28.5994 41.7375 28.6054 41.7377 28.609C41.7379 28.6125 41.7378 28.6142 41.7378 28.6143C41.7377 28.6144 41.7378 28.6138 41.738 28.6128C41.7382 28.6118 41.7384 28.6114 41.7382 28.6119C41.7381 28.6121 41.7351 28.6213 41.7232 28.64C41.7109 28.6591 41.6874 28.6908 41.6451 28.7331L43.7665 30.8544ZM43.3931 25.7802C42.7407 25.1278 41.9251 24.6052 40.9838 24.4859C39.9776 24.3583 39.0497 24.7214 38.3415 25.4295L40.4629 27.5508C40.5348 27.4789 40.5761 27.4637 40.5797 27.4624C40.5802 27.4622 40.5836 27.4592 40.6066 27.4621C40.6694 27.47 40.906 27.5358 41.2718 27.9016L43.3931 25.7802ZM38.3415 25.4295C37.6136 26.1575 37.2634 27.1051 37.3623 28.0971C37.4572 29.0487 37.9473 29.8945 38.6131 30.5603L40.7344 28.439C40.4272 28.1318 40.3572 27.8971 40.3475 27.7994C40.3429 27.7537 40.3487 27.7236 40.3578 27.6988C40.3672 27.6732 40.3919 27.6218 40.4629 27.5508L38.3415 25.4295ZM38.6131 30.5603C39.3124 31.2597 40.1826 31.7398 41.1389 31.824C42.1229 31.9106 43.0596 31.5613 43.7665 30.8544L41.6451 28.7331C41.5487 28.8295 41.4785 28.8423 41.4019 28.8355C41.2975 28.8264 41.0532 28.7578 40.7344 28.439L38.6131 30.5603ZM50.6818 23.9391C51.3982 23.2227 51.7589 22.2806 51.6776 21.2868C51.5986 20.3214 51.1176 19.4478 50.4216 18.7518L48.3003 20.8731C48.6112 21.184 48.6788 21.4248 48.6876 21.5314C48.694 21.6095 48.6813 21.697 48.5605 21.8178L50.6818 23.9391ZM50.4216 18.7518C49.7388 18.069 48.8767 17.5803 47.9082 17.5027C46.9062 17.4223 45.9719 17.7991 45.2569 18.5142L47.3782 20.6355C47.523 20.4907 47.6126 20.4886 47.6684 20.4931C47.7578 20.5002 47.9874 20.5603 48.3003 20.8731L50.4216 18.7518ZM45.2569 18.5142C44.5368 19.2342 44.1586 20.1735 44.2271 21.1735C44.2937 22.147 44.7704 23.0227 45.4605 23.7128L47.5818 21.5915C47.2877 21.2974 47.227 21.07 47.2201 20.9687C47.2149 20.8939 47.2271 20.7866 47.3782 20.6355L45.2569 18.5142ZM45.4605 23.7128C46.1512 24.4035 47.0242 24.8949 48.004 24.9695C49.0161 25.0465 49.9585 24.6624 50.6818 23.9391L48.5605 21.8178C48.4013 21.977 48.2972 21.9832 48.2317 21.9782C48.1338 21.9707 47.8981 21.9077 47.5818 21.5915L45.4605 23.7128ZM49.9181 23.1754C48.7208 24.3727 47.1591 24.3366 45.9979 23.1754L43.8766 25.2968C46.1774 27.5976 49.639 27.6972 52.0394 25.2968L49.9181 23.1754ZM45.9979 23.1754C44.8433 22.0208 44.8507 20.4477 46.0205 19.2779L43.8992 17.1565C41.5844 19.4714 41.524 22.9441 43.8766 25.2968L45.9979 23.1754ZM46.0205 19.2779C47.1924 18.106 48.7315 18.1365 49.8842 19.2892L52.0055 17.1679C49.7188 14.8812 46.2799 14.7759 43.8992 17.1565L46.0205 19.2779ZM49.8842 19.2892C51.0686 20.4736 51.0467 22.0468 49.9181 23.1754L52.0394 25.2968C54.3502 22.986 54.3509 19.5133 52.0055 17.1679L49.8842 19.2892ZM49.5466 13.819C49.7397 13.9294 50.1163 14.2412 50.1712 14.818C50.2224 15.3561 49.9508 15.7096 49.8178 15.8427L47.6965 13.7213C47.4503 13.9675 47.1221 14.4455 47.1847 15.1024C47.2509 15.7979 47.7066 16.2229 48.0582 16.4238L49.5466 13.819ZM49.8178 15.8427L51.0623 14.5981L48.941 12.4768L47.6965 13.7213L49.8178 15.8427ZM51.0623 14.5981C50.9069 14.7535 50.6394 14.9245 50.2765 14.9525C49.9358 14.9787 49.6836 14.8651 49.558 14.7898L51.1015 12.2173C50.8628 12.0741 50.4974 11.9266 50.0464 11.9613C49.5732 11.9977 49.1982 12.2196 48.941 12.4768L51.0623 14.5981ZM49.5773 14.8012L53.4013 17.0186L54.9062 14.4234L51.0822 12.2059L49.5773 14.8012ZM53.4022 17.0192C53.5753 17.1194 53.8485 17.2444 54.1941 17.267C54.5607 17.291 55.1037 17.193 55.5108 16.7232C55.8952 16.2797 55.9231 15.773 55.889 15.4764C55.8539 15.1721 55.7433 14.9256 55.6442 14.7545L53.048 16.2576C53.0111 16.194 52.9344 16.0437 52.9086 15.8193C52.8837 15.6026 52.896 15.1596 53.2437 14.7584C53.614 14.3311 54.099 14.2543 54.3899 14.2734C54.6599 14.291 54.8397 14.3849 54.9053 14.4229L53.4022 17.0192ZM55.6418 14.7503L53.4243 10.9489L50.8329 12.4605L53.0504 16.2619L55.6418 14.7503ZM53.4149 10.9329C53.4902 11.0585 53.6037 11.3107 53.5775 11.6514C53.5496 12.0143 53.3786 12.2819 53.2232 12.4372L51.1019 10.3159C50.8447 10.5731 50.6228 10.9482 50.5864 11.4213C50.5517 11.8723 50.6992 12.2377 50.8424 12.4764L53.4149 10.9329ZM53.2232 12.4372L54.332 11.3285L52.2106 9.20716L51.1019 10.3159L53.2232 12.4372ZM54.332 11.3285C54.1766 11.4838 53.909 11.6549 53.5461 11.6828C53.2055 11.709 52.9532 11.5955 52.8276 11.5201L54.3711 8.94765C54.1324 8.80443 53.767 8.65694 53.3161 8.69163C52.8429 8.72803 52.4678 8.94998 52.2106 9.20716L54.332 11.3285ZM52.8469 11.5315L56.671 13.749L58.1759 11.1538L54.3519 8.93627L52.8469 11.5315ZM56.6719 13.7495C56.845 13.8497 57.1181 13.9747 57.4638 13.9973C57.8304 14.0213 58.3733 13.9233 58.7804 13.4536C59.1648 13.01 59.1927 12.5033 59.1586 12.2067C59.1236 11.9025 59.013 11.656 58.9139 11.4849L56.3176 12.988C56.2808 12.9243 56.2041 12.774 56.1783 12.5496C56.1533 12.333 56.1657 11.8899 56.5133 11.4888C56.8837 11.0615 57.3686 10.9847 57.6596 11.0037C57.9296 11.0214 58.1094 11.1152 58.175 11.1532L56.6719 13.7495ZM58.9114 11.4806L56.6939 7.6792L54.1026 9.19081L56.3201 12.9922L58.9114 11.4806ZM56.6845 7.66326C56.7599 7.78884 56.8734 8.0411 56.8472 8.38177C56.8193 8.74464 56.6482 9.01221 56.4929 9.16757L54.3716 7.04625C54.1144 7.30343 53.8924 7.67848 53.856 8.15165C53.8213 8.60264 53.9688 8.96803 54.112 9.20674L56.6845 7.66326ZM56.4929 9.16757L57.7374 7.92306L55.6161 5.80174L54.3716 7.04625L56.4929 9.16757ZM57.7374 7.92306C57.6044 8.05607 57.2508 8.3277 56.7127 8.27645C56.1359 8.22152 55.8241 7.84499 55.7138 7.65186L58.3185 6.16345C58.1176 5.81193 57.6927 5.3562 56.9971 5.28996C56.3402 5.2274 55.8622 5.55559 55.6161 5.80174L57.7374 7.92306ZM55.72 7.66265L59.6345 14.383L62.2268 12.873L58.3123 6.15266L55.72 7.66265ZM59.6444 14.3997C59.5691 14.2742 59.4556 14.0219 59.4818 13.6813C59.5097 13.3184 59.6807 13.0508 59.8361 12.8954L61.9574 15.0168C62.2146 14.7596 62.4365 14.3845 62.4729 13.9113C62.5076 13.4603 62.3601 13.0949 62.2169 12.8562L59.6444 14.3997ZM59.8361 12.8954L58.32 14.4115L60.4414 16.5328L61.9574 15.0168L59.8361 12.8954ZM58.32 14.4115C58.4754 14.2561 58.743 14.0851 59.1059 14.0572C59.4465 14.031 59.6988 14.1445 59.8243 14.2198L58.2809 16.7923C58.5196 16.9355 58.885 17.083 59.3359 17.0483C59.8091 17.0119 60.1842 16.79 60.4414 16.5328L58.32 14.4115ZM59.8068 14.2095L56.3448 12.1956L54.8364 14.7888L58.2984 16.8027L59.8068 14.2095ZM56.3422 12.1941C56.1698 12.0943 55.9106 11.977 55.5864 11.9475C55.2574 11.9176 54.73 11.9769 54.3009 12.4061C53.8717 12.8353 53.8123 13.3626 53.8422 13.6917C53.8717 14.0158 53.9891 14.2751 54.0888 14.4474L56.6851 12.9443C56.7226 13.0092 56.8075 13.1737 56.8299 13.4201C56.8527 13.6713 56.8118 14.1378 56.4222 14.5274C56.0326 14.917 55.5661 14.958 55.3148 14.9352C55.0684 14.9128 54.9039 14.8279 54.8391 14.7904L56.3422 12.1941ZM54.0904 14.4501L56.1042 17.9121L58.6974 16.4036L56.6836 12.9417L54.0904 14.4501ZM56.1146 17.9296C56.0392 17.8041 55.9257 17.5518 55.9519 17.2111C55.9798 16.8483 56.1508 16.5807 56.3062 16.4253L58.4275 18.5466C58.6847 18.2894 58.9067 17.9144 58.9431 17.4412C58.9777 16.9902 58.8303 16.6248 58.687 16.3861L56.1146 17.9296ZM56.3062 16.4253L54.7902 17.9413L56.9115 20.0627L58.4275 18.5466L56.3062 16.4253ZM54.7902 17.9413C54.9455 17.786 55.2131 17.6149 55.576 17.587C55.9167 17.5608 56.1689 17.6744 56.2945 17.7497L54.751 20.3222C54.9897 20.4654 55.3551 20.6129 55.8061 20.5782C56.2792 20.5418 56.6543 20.3199 56.9115 20.0627L54.7902 17.9413ZM56.2777 17.7398L49.5574 13.8253L48.0474 16.4175L54.7677 20.3321L56.2777 17.7398ZM58.7912 5.08738C58.9813 5.2775 59.1541 5.58636 59.1541 5.97834C59.1541 6.37032 58.9813 6.67917 58.7912 6.86929L56.6698 4.74797C56.3779 5.03992 56.1541 5.46757 56.1541 5.97834C56.1541 6.48911 56.3779 6.91676 56.6698 7.2087L58.7912 5.08738ZM58.7912 6.86929L60.0357 5.62478L57.9143 3.50347L56.6698 4.74797L58.7912 6.86929ZM60.0357 5.62478C59.8455 5.81491 59.5367 5.98776 59.1447 5.98776C58.7527 5.98776 58.4439 5.81491 58.2538 5.62478L60.3751 3.50346C60.0831 3.21152 59.6555 2.98776 59.1447 2.98776C58.6339 2.98776 58.2063 3.21152 57.9143 3.50346L60.0357 5.62478ZM58.2538 5.62479L58.3216 5.69267L60.443 3.57134L60.3751 3.50346L58.2538 5.62479ZM58.3216 5.69267C58.5248 5.89579 59.2226 6.46881 60.1396 6.09707C60.9866 5.75367 61.1389 4.93994 61.1673 4.68452L58.1856 4.35322C58.1914 4.30145 58.2701 3.61782 59.0125 3.31685C59.8248 2.98754 60.3869 3.5153 60.443 3.57135L58.3216 5.69267ZM61.1695 4.66336C61.2 4.34823 61.3491 3.94933 61.7893 3.50912L59.668 1.3878C58.7958 2.25998 58.2887 3.28661 58.1834 4.37438L61.1695 4.66336ZM61.7893 3.50912C62.1005 3.19786 62.4194 3.11723 62.741 3.15109C63.104 3.1893 63.529 3.38775 63.888 3.74671L66.0093 1.62539C65.2369 0.852979 64.1968 0.287756 63.0551 0.167572C61.872 0.0430361 60.6465 0.409296 59.668 1.3878L61.7893 3.50912ZM63.888 3.74671L67.3273 7.18608L69.4487 5.06476L66.0093 1.62539L63.888 3.74671ZM67.3273 7.18608C67.1372 6.99596 66.9644 6.6871 66.9644 6.29512C66.9644 5.90314 67.1372 5.59429 67.3273 5.40417L69.4487 7.52549C69.7406 7.23354 69.9644 6.80589 69.9644 6.29512C69.9644 5.78435 69.7406 5.3567 69.4487 5.06476L67.3273 7.18608ZM67.3274 5.40416L66.0828 6.64867L68.2042 8.77L69.4487 7.52549L67.3274 5.40416ZM66.0828 6.64868C66.2729 6.45856 66.5818 6.2857 66.9738 6.2857C67.3658 6.2857 67.6746 6.45856 67.8647 6.64868L65.7434 8.77C66.0354 9.06194 66.463 9.2857 66.9738 9.2857C67.4846 9.2857 67.9122 9.06193 68.2042 8.77L66.0828 6.64868ZM67.8647 6.64868L64.4254 3.20931L62.3041 5.33063L65.7434 8.77L67.8647 6.64868ZM64.4254 3.20931C63.9792 2.76315 63.358 2.43992 62.6373 2.42521C61.8993 2.41015 61.2299 2.72221 60.7201 3.23194L62.8415 5.35326C62.8518 5.34287 62.8341 5.36367 62.7816 5.38631C62.7276 5.40964 62.6562 5.42622 62.5761 5.42459C62.4098 5.42119 62.3203 5.34686 62.3041 5.33063L64.4254 3.20931ZM60.7201 3.23194C59.9894 3.96266 59.6153 4.89015 59.6961 5.87347C59.7733 6.81321 60.2493 7.6203 60.8559 8.22694L62.9772 6.10562C62.7353 5.86373 62.6909 5.68653 62.686 5.62783C62.6839 5.60173 62.6865 5.57944 62.6979 5.55027C62.7102 5.51889 62.7446 5.45016 62.8415 5.35326L60.7201 3.23194ZM60.8559 8.22694L63.5712 10.9422L65.6925 8.82091L62.9772 6.10562L60.8559 8.22694ZM63.5712 10.9422C63.3811 10.7521 63.2082 10.4433 63.2082 10.0513C63.2082 9.6593 63.3811 9.35044 63.5712 9.16032L65.6925 11.2816C65.9845 10.9897 66.2082 10.562 66.2082 10.0513C66.2082 9.5405 65.9845 9.11285 65.6925 8.82091L63.5712 10.9422ZM63.5712 9.16032L62.3267 10.4048L64.448 12.5261L65.6925 11.2816L63.5712 9.16032ZM62.3267 10.4048C62.5168 10.2147 62.8257 10.0419 63.2176 10.0419C63.6096 10.0419 63.9185 10.2147 64.1086 10.4048L61.9873 12.5261C62.2792 12.8181 62.7069 13.0419 63.2176 13.0419C63.7284 13.0419 64.1561 12.8181 64.448 12.5261L62.3267 10.4048ZM64.1086 10.4048L58.7912 5.08738L56.6698 7.2087L61.9873 12.5261L64.1086 10.4048ZM32.5956 68.7879C32.4055 68.5978 32.2326 68.2889 32.2326 67.8969C32.2326 67.505 32.4055 67.1961 32.5956 67.006L34.7169 69.1273C35.0088 68.8354 35.2326 68.4077 35.2326 67.8969C35.2326 67.3862 35.0088 66.9585 34.7169 66.6666L32.5956 68.7879ZM32.5956 67.006L31.3511 68.2505L33.4724 70.3718L34.7169 69.1273L32.5956 67.006ZM31.3511 68.2505C31.5412 68.0604 31.8501 67.8875 32.242 67.8875C32.634 67.8875 32.9429 68.0604 33.133 68.2505L31.0117 70.3718C31.3036 70.6638 31.7313 70.8875 32.242 70.8875C32.7528 70.8875 33.1805 70.6638 33.4724 70.3718L31.3511 68.2505ZM33.133 68.2505L29.3542 64.4717L27.2329 66.593L31.0117 70.3718L33.133 68.2505ZM29.3542 64.4717C29.0623 64.1798 28.6346 63.956 28.1238 63.956C27.6131 63.956 27.1854 64.1798 26.8935 64.4717L29.0148 66.593C28.8247 66.7832 28.5158 66.956 28.1238 66.956C27.7319 66.956 27.423 66.7832 27.2329 66.593L29.3542 64.4717ZM26.8935 64.4717L26.4975 64.8677L28.6188 66.989L29.0148 66.593L26.8935 64.4717ZM26.4975 64.8677C26.6876 64.6776 26.9965 64.5047 27.3885 64.5047C27.7804 64.5047 28.0893 64.6776 28.2794 64.8677L26.1581 66.989C26.45 67.281 26.8777 67.5047 27.3885 67.5047C27.8992 67.5047 28.3269 67.281 28.6188 66.989L26.4975 64.8677ZM28.2794 64.8677L27.3743 63.9626L25.253 66.0839L26.1581 66.989L28.2794 64.8677ZM27.3743 63.9626C27.5644 64.1527 27.7373 64.4616 27.7373 64.8536C27.7373 65.2455 27.5644 65.5544 27.3743 65.7445L25.253 63.6232C24.9611 63.9151 24.7373 64.3428 24.7373 64.8535C24.7373 65.3643 24.9611 65.792 25.253 66.0839L27.3743 63.9626ZM27.3743 65.7445L27.7703 65.3485L25.649 63.2272L25.253 63.6232L27.3743 65.7445ZM27.7703 65.3485C28.0108 65.108 28.2765 64.7049 28.2898 64.159C28.3035 63.5957 28.0424 63.1599 27.7703 62.8878L25.649 65.0091C25.49 64.8502 25.2798 64.5331 25.2907 64.0858C25.3012 63.6558 25.5103 63.3659 25.649 63.2272L27.7703 65.3485ZM27.7821 62.8998C27.2754 62.3815 27.062 62.1032 26.9696 61.8754C26.9186 61.7498 26.8606 61.5498 27.0451 61.0729L24.2472 59.9905C23.832 61.0636 23.808 62.0628 24.1898 63.0036C24.5301 63.842 25.1483 64.4972 25.6371 64.9971L27.7821 62.8998ZM27.0439 61.0761C27.1054 60.9181 27.2871 60.6789 27.6524 60.4192C28.0033 60.1697 28.4 59.9904 28.6764 59.9033L27.7749 57.0419C27.2255 57.2151 26.5417 57.5279 25.914 57.9742C25.3006 58.4103 24.6055 59.0705 24.2484 59.9873L27.0439 61.0761ZM28.7641 59.8726C28.491 59.9777 28.0322 60.0236 27.5946 59.7405C27.2094 59.4912 27.0843 59.1416 27.0469 58.9796L29.9701 58.305C29.8988 57.996 29.7058 57.5332 29.2244 57.2217C28.6906 56.8764 28.1074 56.911 27.6872 57.0726L28.7641 59.8726ZM27.0421 58.9582L27.3589 60.4289L30.2917 59.7973L29.9749 58.3265L27.0421 58.9582ZM27.3637 60.4504C27.3246 60.2808 27.289 59.9128 27.5207 59.5266C27.7497 59.1448 28.0832 59.0075 28.2322 58.965L29.0564 61.8496C29.3637 61.7617 29.8047 61.5509 30.0932 61.0701C30.3842 60.585 30.36 60.0925 30.2869 59.7758L27.3637 60.4504ZM28.2181 58.9691C27.947 59.0494 27.5288 59.1708 27.1666 59.3802C26.7151 59.6412 26.3236 60.0464 26.1238 60.6457L28.9699 61.5944C28.9474 61.6619 28.9031 61.7516 28.8286 61.8385C28.7573 61.9216 28.691 61.9642 28.6681 61.9774C28.6515 61.987 28.6653 61.9767 28.7418 61.9492C28.8185 61.9216 28.9186 61.8904 29.0704 61.8455L28.2181 58.9691ZM26.1541 60.5629C25.8245 61.3871 26.142 62.0916 26.4034 62.4838C26.6329 62.828 26.9702 63.1625 27.2216 63.4139L29.3429 61.2926C29.2008 61.1505 29.0966 61.0446 29.0149 60.9556C28.9755 60.9126 28.9471 60.8798 28.9269 60.8551C28.9065 60.8301 28.8991 60.819 28.8996 60.8197C28.8999 60.8203 28.9137 60.8408 28.9315 60.8791C28.9496 60.9182 28.9748 60.9819 28.9927 61.0673C29.0112 61.155 29.0205 61.2583 29.0111 61.3714C29.0017 61.4849 28.9751 61.5882 28.9396 61.6771L26.1541 60.5629ZM27.2216 63.4139C27.4718 63.6641 27.8939 63.9437 28.4661 63.9437C29.0356 63.9437 29.4523 63.6666 29.6936 63.4252L27.5723 61.3039C27.7118 61.1643 28.0153 60.9437 28.4661 60.9437C28.9194 60.9437 29.2171 61.1668 29.3429 61.2926L27.2216 63.4139ZM29.6936 63.4252L30.6892 62.4296L28.5679 60.3083L27.5723 61.3039L29.6936 63.4252ZM30.6892 62.4296C30.4991 62.6197 30.1902 62.7926 29.7983 62.7926C29.4063 62.7926 29.0974 62.6197 28.9073 62.4296L31.0286 60.3083C30.7367 60.0163 30.309 59.7926 29.7983 59.7926C29.2875 59.7926 28.8598 60.0163 28.5679 60.3083L30.6892 62.4296ZM28.9073 62.4296L29.8124 63.3347L31.9337 61.2134L31.0286 60.3083L28.9073 62.4296ZM29.8124 63.3347C29.6223 63.1446 29.4494 62.8357 29.4494 62.4437C29.4494 62.0518 29.6223 61.7429 29.8124 61.5528L31.9337 63.6741C32.2257 63.3822 32.4494 62.9545 32.4494 62.4437C32.4494 61.933 32.2257 61.5053 31.9337 61.2134L29.8124 63.3347ZM29.8124 61.5528L28.8168 62.5484L30.9381 64.6697L31.9337 63.6741L29.8124 61.5528ZM28.8168 62.5484C28.5249 62.8403 28.3011 63.268 28.3011 63.7787C28.3011 64.2895 28.5249 64.7172 28.8168 65.0091L30.9381 62.8878C31.1282 63.0779 31.3011 63.3868 31.3011 63.7787C31.3011 64.1707 31.1282 64.4796 30.9381 64.6697L28.8168 62.5484ZM28.8168 65.0091L32.5956 68.7879L34.7169 66.6666L30.9381 62.8878L28.8168 65.0091ZM38.8267 62.6643C39.5431 61.9479 39.9038 61.0058 39.8225 60.0119C39.7435 59.0466 39.2625 58.1729 38.5665 57.4769L36.4452 59.5982C36.7561 59.9092 36.8238 60.1499 36.8325 60.2565C36.8389 60.3347 36.8262 60.4221 36.7054 60.5429L38.8267 62.6643ZM38.5665 57.4769C37.8837 56.7941 37.0216 56.3055 36.0532 56.2278C35.0511 56.1474 34.1168 56.5243 33.4018 57.2393L35.5231 59.3607C35.6679 59.2159 35.7575 59.2137 35.8133 59.2182C35.9027 59.2254 36.1323 59.2854 36.4452 59.5982L38.5665 57.4769ZM33.4018 57.2393C32.6817 57.9594 32.3035 58.8986 32.372 59.8986C32.4386 60.8721 32.9153 61.7478 33.6054 62.438L35.7267 60.3167C35.4326 60.0225 35.3719 59.7951 35.365 59.6938C35.3599 59.619 35.372 59.5118 35.5231 59.3607L33.4018 57.2393ZM33.6054 62.438C34.2961 63.1287 35.1691 63.6201 36.1489 63.6947C37.161 63.7717 38.1034 63.3875 38.8267 62.6643L36.7054 60.5429C36.5462 60.7021 36.4421 60.7083 36.3766 60.7033C36.2787 60.6959 36.043 60.6329 35.7267 60.3167L33.6054 62.438ZM38.063 61.9006C36.8657 63.0979 35.304 63.0617 34.1428 61.9006L32.0215 64.0219C34.3224 66.3228 37.7839 66.4224 40.1843 64.0219L38.063 61.9006ZM34.1428 61.9006C32.9882 60.7459 32.9956 59.1728 34.1655 58.003L32.0441 55.8817C29.7293 58.1965 29.6689 61.6693 32.0215 64.0219L34.1428 61.9006ZM34.1655 58.003C35.3373 56.8312 36.8764 56.8617 38.0291 58.0143L40.1504 55.893C37.8637 53.6063 34.4248 53.501 32.0441 55.8817L34.1655 58.003ZM38.0291 58.0143C39.2135 59.1988 39.1916 60.772 38.063 61.9006L40.1843 64.0219C42.4951 61.7111 42.4958 58.2384 40.1504 55.893L38.0291 58.0143ZM38.5171 52.2315C38.7072 52.4216 38.88 52.7305 38.88 53.1225C38.88 53.5144 38.7072 53.8233 38.5171 54.0134L36.3958 51.8921C36.1038 52.1841 35.88 52.6117 35.88 53.1225C35.88 53.6332 36.1038 54.0609 36.3958 54.3528L38.5171 52.2315ZM38.5171 54.0134L39.7616 52.7689L37.6403 50.6476L36.3958 51.8921L38.5171 54.0134ZM39.7616 52.7689C39.5715 52.959 39.2626 53.1319 38.8706 53.1319C38.4786 53.1319 38.1698 52.959 37.9797 52.7689L40.101 50.6476C39.8091 50.3557 39.3814 50.1319 38.8706 50.1319C38.3599 50.1319 37.9322 50.3557 37.6403 50.6476L39.7616 52.7689ZM37.9797 52.7689L38.0362 52.8255L40.1576 50.7042L40.101 50.6476L37.9797 52.7689ZM38.0362 52.8255C38.2175 53.0068 38.9366 53.6222 39.8787 53.2185C40.7998 52.8237 40.8684 51.9038 40.8684 51.6517H37.8684C37.8684 51.6032 37.8748 50.8134 38.6969 50.4611C39.54 50.0997 40.1234 50.67 40.1576 50.7042L38.0362 52.8255ZM40.8674 51.7072C40.8762 51.4708 40.9484 51.2201 41.2437 50.9248L39.1224 48.8035C38.2863 49.6396 37.906 50.6107 37.8695 51.5962L40.8674 51.7072ZM41.2437 50.9248C41.3561 50.8124 41.4621 50.7376 41.5892 50.674L40.2476 47.9907C39.8317 48.1987 39.4625 48.4633 39.1224 48.8035L41.2437 50.9248ZM41.6296 50.6531C41.5176 50.7134 41.0643 50.9218 40.51 50.6842C40.0207 50.4745 39.859 50.08 39.8452 50.0477L42.6026 48.866C42.5209 48.6752 42.28 48.1789 41.6917 47.9268C41.0384 47.6468 40.4663 47.8722 40.2073 48.0117L41.6296 50.6531ZM39.8214 49.9888L40.4436 51.6293L43.2486 50.5653L42.6264 48.9248L39.8214 49.9888ZM40.4231 51.5717C40.3579 51.3759 40.3148 51.0526 40.4637 50.6991C40.6116 50.3477 40.8685 50.158 41.0396 50.0725L42.3812 52.7557C42.688 52.6023 43.0354 52.3221 43.2286 51.8633C43.4227 51.4022 43.3797 50.9545 43.2692 50.623L40.4231 51.5717ZM40.9891 50.0989C40.0228 50.6288 39.1845 51.5162 39.2402 52.804C39.2869 53.8833 39.9726 54.7618 40.5818 55.3711L42.7031 53.2498C42.4865 53.0331 42.3564 52.8626 42.2856 52.7424C42.2142 52.6209 42.2344 52.6043 42.2374 52.6744C42.2391 52.7127 42.2346 52.7611 42.2193 52.8118C42.2042 52.8619 42.1846 52.894 42.1758 52.9065C42.1631 52.9243 42.2099 52.8509 42.4316 52.7293L40.9891 50.0989ZM40.5818 55.3711L43.2971 58.0864L45.4184 55.965L42.7031 53.2498L40.5818 55.3711ZM43.2971 58.0864C43.107 57.8962 42.9341 57.5874 42.9341 57.1954C42.9341 56.8034 43.107 56.4946 43.2971 56.3045L45.4184 58.4258C45.7104 58.1338 45.9341 57.7062 45.9341 57.1954C45.9341 56.6846 45.7104 56.257 45.4184 55.965L43.2971 58.0864ZM43.2971 56.3045L42.0526 57.549L44.1739 59.6703L45.4184 58.4258L43.2971 56.3045ZM42.0526 57.549C42.2427 57.3588 42.5516 57.186 42.9436 57.186C43.3355 57.186 43.6444 57.3588 43.8345 57.549L41.7132 59.6703C42.0051 59.9622 42.4328 60.186 42.9436 60.186C43.4543 60.186 43.882 59.9622 44.1739 59.6703L42.0526 57.549ZM43.8345 57.549L38.5171 52.2315L36.3958 54.3528L41.7132 59.6703L43.8345 57.549ZM53.7296 45.2537C53.7805 45.4067 53.8419 45.7156 53.7023 46.0785C53.5473 46.4815 53.2368 46.7128 52.9808 46.8113L51.9038 44.0113C51.5007 44.1663 51.0997 44.4882 50.9023 45.0015C50.7203 45.4747 50.7873 45.9137 50.8835 46.2024L53.7296 45.2537ZM53.0404 46.7869L54.6017 46.1081L53.4055 43.3569L51.8442 44.0357L53.0404 46.7869ZM54.5421 46.1325C54.4202 46.1794 54.0794 46.2804 53.6617 46.1198C53.1786 45.934 52.9528 45.5418 52.8781 45.2803L55.7627 44.4562C55.6427 44.0362 55.3321 43.548 54.7386 43.3197C54.2107 43.1167 53.734 43.229 53.4651 43.3325L54.5421 46.1325ZM52.8801 45.2872C53.0917 46.0147 52.9683 46.9953 52.1057 47.8579L54.227 49.9792C55.8761 48.3301 56.2731 46.2108 55.7607 44.4492L52.8801 45.2872ZM52.1057 47.8579C50.9413 49.0224 49.3568 49.0291 48.1968 47.8692L46.0755 49.9905C48.4228 52.3378 51.9069 52.2994 54.227 49.9792L52.1057 47.8579ZM48.1968 47.8692C47.0282 46.7006 47.041 45.1274 48.2082 43.9603L46.0868 41.839C43.7693 44.1565 43.7142 47.6292 46.0755 49.9905L48.1968 47.8692ZM48.2082 43.9603C49.072 43.0964 50.0564 42.9724 50.7762 43.1771L51.5968 40.2916C49.8502 39.7948 47.7346 40.1912 46.0868 41.839L48.2082 43.9603ZM50.648 43.1344C50.4596 43.0619 50.1274 42.8664 49.9483 42.4409C49.7743 42.0278 49.8609 41.6721 49.9222 41.5127L52.7223 42.5896C52.8402 42.2831 52.9324 41.7973 52.7132 41.2767C52.4888 40.7437 52.0605 40.4634 51.725 40.3343L50.648 43.1344ZM49.9466 41.453L49.2678 43.0143L52.019 44.2105L52.6979 42.6492L49.9466 41.453ZM49.2434 43.0739C49.3098 42.9014 49.5066 42.546 49.9597 42.3623C50.3567 42.2013 50.6785 42.2887 50.7387 42.3059L49.9146 45.1905C50.1331 45.2529 50.585 45.3459 51.0868 45.1425C51.6445 44.9164 51.9205 44.4706 52.0434 44.1509L49.2434 43.0739ZM50.7174 42.3C50.1482 42.1464 49.5454 42.1164 48.9395 42.2879C48.3389 42.4579 47.8469 42.7942 47.4445 43.1966L49.5658 45.318C49.6315 45.2523 49.6799 45.2165 49.71 45.1976C49.7385 45.1798 49.753 45.1755 49.7565 45.1745C49.7595 45.1737 49.7683 45.1712 49.79 45.1716C49.8136 45.172 49.8604 45.176 49.9359 45.1964L50.7174 42.3ZM47.4445 43.1966C46.7241 43.917 46.3452 44.8576 46.4163 45.861C46.4855 46.8368 46.9664 47.7136 47.6594 48.4066L49.7808 46.2853C49.4782 45.9827 49.416 45.7508 49.4088 45.6489C49.4036 45.5747 49.415 45.4688 49.5658 45.318L47.4445 43.1966ZM47.6594 48.4066C48.3609 49.108 49.2437 49.5861 50.2214 49.6502C51.2233 49.716 52.1574 49.3335 52.8694 48.6216L50.7481 46.5002C50.6002 46.6481 50.4935 46.6616 50.4178 46.6567C50.3178 46.6501 50.0862 46.5907 49.7808 46.2853L47.6594 48.4066ZM52.8694 48.6216C53.2717 48.2193 53.6107 47.7247 53.779 47.117C53.9487 46.5042 53.9119 45.8956 53.7505 45.322L50.8626 46.1342C50.8848 46.2131 50.8893 46.2615 50.89 46.2855C50.8906 46.3074 50.8881 46.3151 50.8878 46.3162C50.8874 46.3177 50.884 46.3306 50.867 46.3577C50.849 46.3867 50.8138 46.4345 50.7481 46.5002L52.8694 48.6216ZM59.2002 42.2907C59.9166 41.5744 60.2773 40.6323 60.196 39.6384C60.117 38.6731 59.636 37.7994 58.94 37.1034L56.8187 39.2247C57.1296 39.5356 57.1973 39.7764 57.206 39.883C57.2124 39.9612 57.1997 40.0486 57.0789 40.1694L59.2002 42.2907ZM58.94 37.1034C58.2572 36.4206 57.3951 35.932 56.4267 35.8543C55.4246 35.7739 54.4904 36.1508 53.7753 36.8658L55.8966 38.9871C56.0414 38.8424 56.1311 38.8402 56.1868 38.8447C56.2762 38.8519 56.5059 38.9119 56.8187 39.2247L58.94 37.1034ZM53.7753 36.8658C53.0552 37.5859 52.6771 38.5251 52.7455 39.5251C52.8121 40.4986 53.2888 41.3743 53.9789 42.0645L56.1003 39.9432C55.8061 39.649 55.7454 39.4216 55.7385 39.3203C55.7334 39.2455 55.7455 39.1383 55.8966 38.9871L53.7753 36.8658ZM53.9789 42.0645C54.6696 42.7552 55.5427 43.2466 56.5224 43.3211C57.5345 43.3982 58.4769 43.014 59.2002 42.2907L57.0789 40.1694C56.9197 40.3286 56.8156 40.3348 56.7501 40.3298C56.6522 40.3223 56.4165 40.2594 56.1003 39.9432L53.9789 42.0645ZM58.4365 41.5271C57.2393 42.7244 55.6775 42.6882 54.5163 41.5271L52.395 43.6484C54.6959 45.9492 58.1574 46.0489 60.5579 43.6484L58.4365 41.5271ZM54.5163 41.5271C53.3617 40.3724 53.3692 38.7993 54.539 37.6295L52.4176 35.5082C50.1028 37.823 50.0424 41.2958 52.395 43.6484L54.5163 41.5271ZM54.539 37.6295C55.7108 36.4576 57.2499 36.4881 58.4026 37.6408L60.5239 35.5195C58.2372 33.2328 54.7983 33.1275 52.4176 35.5082L54.539 37.6295ZM58.4026 37.6408C59.5871 38.8253 59.5651 40.3985 58.4365 41.5271L60.5579 43.6484C62.8686 41.3376 62.8693 37.8649 60.5239 35.5195L58.4026 37.6408ZM65.973 35.518C66.6894 34.8016 67.0501 33.8595 66.9688 32.8657C66.8898 31.9003 66.4088 31.0267 65.7128 30.3307L63.5914 32.452C63.9024 32.7629 63.97 33.0036 63.9787 33.1102C63.9851 33.1884 63.9725 33.2758 63.8517 33.3967L65.973 35.518ZM65.7128 30.3307C65.03 29.6479 64.1678 29.1592 63.1994 29.0815C62.1973 29.0011 61.2631 29.378 60.548 30.0931L62.6694 32.2144C62.8141 32.0696 62.9038 32.0675 62.9596 32.0719C63.049 32.0791 63.2786 32.1392 63.5914 32.452L65.7128 30.3307ZM60.548 30.0931C59.828 30.8131 59.4498 31.7524 59.5182 32.7524C59.5848 33.7259 60.0615 34.6016 60.7517 35.2917L62.873 33.1704C62.5789 32.8762 62.5182 32.6489 62.5112 32.5476C62.5061 32.4728 62.5183 32.3655 62.6694 32.2144L60.548 30.0931ZM60.7517 35.2917C61.4424 35.9824 62.3154 36.4738 63.2952 36.5484C64.3073 36.6254 65.2497 36.2413 65.973 35.518L63.8517 33.3967C63.6925 33.5559 63.5884 33.562 63.5228 33.557C63.425 33.5496 63.1892 33.4866 62.873 33.1704L60.7517 35.2917ZM65.2093 34.7543C64.012 35.9516 62.4502 35.9155 61.2891 34.7543L59.1678 36.8756C61.4686 39.1765 64.9301 39.2761 67.3306 36.8756L65.2093 34.7543ZM61.2891 34.7543C60.1345 33.5997 60.1419 32.0266 61.3117 30.8567L59.1904 28.7354C56.8756 31.0502 56.8152 34.523 59.1678 36.8756L61.2891 34.7543ZM61.3117 30.8567C62.4836 29.6849 64.0227 29.7154 65.1754 30.8681L67.2967 28.7467C65.01 26.46 61.571 26.3548 59.1904 28.7354L61.3117 30.8567ZM65.1754 30.8681C66.3598 32.0525 66.3379 33.6257 65.2093 34.7543L67.3306 36.8756C69.6414 34.5649 69.6421 31.0921 67.2967 28.7467L65.1754 30.8681ZM63.4006 22.8225C63.5907 23.0126 63.7636 23.3215 63.7636 23.7135C63.7636 24.1054 63.5907 24.4143 63.4006 24.6044L61.2793 22.4831C60.9873 22.775 60.7636 23.2027 60.7636 23.7135C60.7636 24.2242 60.9873 24.6519 61.2793 24.9438L63.4006 22.8225ZM63.4006 24.6044L64.6451 23.3599L62.5238 21.2386L61.2793 22.4831L63.4006 24.6044ZM64.6451 23.3599C64.455 23.55 64.1461 23.7229 63.7542 23.7229C63.3622 23.7229 63.0533 23.55 62.8632 23.3599L64.9845 21.2386C64.6926 20.9466 64.2649 20.7229 63.7542 20.7229C63.2434 20.7229 62.8157 20.9466 62.5238 21.2386L64.6451 23.3599ZM62.8632 23.3599L70.4434 30.9401L72.5647 28.8188L64.9845 21.2386L62.8632 23.3599ZM70.4434 30.9401C70.2533 30.75 70.0804 30.4411 70.0804 30.0491C70.0804 29.6572 70.2533 29.3483 70.4434 29.1582L72.5647 31.2795C72.8567 30.9876 73.0804 30.5599 73.0804 30.0491C73.0804 29.5384 72.8567 29.1107 72.5647 28.8188L70.4434 30.9401ZM70.4434 29.1582L69.1989 30.4027L71.3202 32.524L72.5647 31.2795L70.4434 29.1582ZM69.1989 30.4027C69.389 30.2126 69.6978 30.0397 70.0898 30.0397C70.4818 30.0397 70.7907 30.2126 70.9808 30.4027L68.8595 32.524C69.1514 32.816 69.5791 33.0397 70.0898 33.0397C70.6006 33.0397 71.0283 32.816 71.3202 32.524L69.1989 30.4027ZM70.9808 30.4027L63.4006 22.8225L61.2793 24.9438L68.8595 32.524L70.9808 30.4027ZM52.1987 76.6449C52.0102 76.5724 51.6781 76.3769 51.4989 75.9514C51.325 75.5383 51.4115 75.1827 51.4729 75.0232L54.2729 76.1001C54.3908 75.7936 54.483 75.3078 54.2638 74.7873C54.0394 74.2543 53.6111 73.9739 53.2756 73.8449L52.1987 76.6449ZM51.4942 74.9708C51.361 75.2816 51.1882 75.5929 50.9882 75.8402C50.7857 76.0905 50.6091 76.2099 50.4794 76.2573L51.5102 79.0747C53.0547 78.5097 53.88 77.0195 54.2516 76.1525L51.4942 74.9708ZM50.4628 76.2635C49.956 76.4558 49.7504 76.3885 49.6121 76.3266C49.3518 76.2101 49.0543 75.9574 48.4803 75.3835L46.359 77.5048C46.8712 78.017 47.541 78.6864 48.3866 79.0648C49.3542 79.4979 50.3931 79.4985 51.5268 79.0685L50.4628 76.2635ZM48.4803 75.3835L46.7154 73.6185L44.5941 75.7399L46.359 77.5048L48.4803 75.3835ZM46.7154 73.6185C46.4235 73.3266 45.9958 73.1028 45.485 73.1028C44.9743 73.1028 44.5466 73.3266 44.2547 73.6185L46.376 75.7399C46.1859 75.93 45.877 76.1028 45.485 76.1028C45.0931 76.1028 44.7842 75.93 44.5941 75.7399L46.7154 73.6185ZM44.2547 73.6185L43.8474 74.0258L45.9687 76.1472L46.376 75.7399L44.2547 73.6185ZM43.8474 74.0258C44.0375 73.8357 44.3464 73.6629 44.7383 73.6629C45.1303 73.6629 45.4392 73.8357 45.6293 74.0258L43.508 76.1471C43.7999 76.4391 44.2276 76.6629 44.7383 76.6629C45.2491 76.6629 45.6768 76.4391 45.9687 76.1471L43.8474 74.0258ZM45.6293 74.0258L44.611 73.0076L42.4897 75.1289L43.508 76.1472L45.6293 74.0258ZM44.6111 73.0076C44.8012 73.1977 44.974 73.5066 44.974 73.8986C44.974 74.2905 44.8012 74.5994 44.6111 74.7895L42.4897 72.6682C42.1978 72.9601 41.974 73.3878 41.974 73.8986C41.974 74.4093 42.1978 74.837 42.4897 75.1289L44.6111 73.0076ZM44.6111 74.7895L45.0183 74.3822L42.897 72.2609L42.4897 72.6682L44.6111 74.7895ZM45.0183 74.3822C45.3103 74.0903 45.5341 73.6626 45.5341 73.1518C45.5341 72.6411 45.3103 72.2134 45.0183 71.9215L42.897 74.0428C42.7069 73.8527 42.5341 73.5438 42.5341 73.1518C42.5341 72.7599 42.7069 72.451 42.897 72.2609L45.0183 74.3822ZM45.0183 71.9215L43.5815 70.4846L41.4602 72.606L42.897 74.0428L45.0183 71.9215ZM43.5815 70.4846C43.7716 70.6748 43.9445 70.9836 43.9445 71.3756C43.9445 71.7676 43.7716 72.0764 43.5815 72.2665L41.4602 70.1452C41.1682 70.4372 40.9445 70.8648 40.9445 71.3756C40.9445 71.8864 41.1682 72.314 41.4602 72.606L43.5815 70.4846ZM43.5815 72.2665L44.826 71.022L42.7047 68.9007L41.4602 70.1452L43.5815 72.2665ZM44.826 71.022C44.6359 71.2122 44.327 71.385 43.9351 71.385C43.5431 71.385 43.2342 71.2122 43.0441 71.022L45.1654 68.9007C44.8735 68.6088 44.4458 68.385 43.9351 68.385C43.4243 68.385 42.9966 68.6088 42.7047 68.9007L44.826 71.022ZM43.0441 71.022L44.4809 72.4589L46.6023 70.3376L45.1654 68.9007L43.0441 71.022ZM44.4809 72.4589C44.7729 72.7508 45.2005 72.9746 45.7113 72.9746C46.2221 72.9746 46.6497 72.7508 46.9417 72.4589L44.8204 70.3376C45.0105 70.1474 45.3193 69.9746 45.7113 69.9746C46.1033 69.9746 46.4122 70.1474 46.6023 70.3376L44.4809 72.4589ZM46.9417 72.4589L47.7563 71.6443L45.6349 69.523L44.8204 70.3376L46.9417 72.4589ZM47.7563 71.6443C47.5662 71.8344 47.2573 72.0073 46.8653 72.0073C46.4733 72.0073 46.1645 71.8344 45.9744 71.6443L48.0957 69.523C47.8037 69.231 47.3761 69.0073 46.8653 69.0073C46.3545 69.0073 45.9269 69.231 45.6349 69.523L47.7563 71.6443ZM45.9744 71.6443L46.9926 72.6625L49.1139 70.5412L48.0957 69.523L45.9744 71.6443ZM46.9926 72.6625C46.8025 72.4724 46.6296 72.1636 46.6296 71.7716C46.6296 71.3796 46.8025 71.0707 46.9926 70.8806L49.1139 73.0019C49.4058 72.71 49.6296 72.2823 49.6296 71.7716C49.6296 71.2608 49.4058 70.8331 49.1139 70.5412L46.9926 72.6625ZM46.9926 70.8806L46.178 71.6952L48.2993 73.8165L49.1139 73.0019L46.9926 70.8806ZM46.178 71.6952C45.8861 71.9871 45.6623 72.4148 45.6623 72.9256C45.6623 73.4363 45.8861 73.864 46.178 74.1559L48.2993 72.0346C48.4894 72.2247 48.6623 72.5336 48.6623 72.9256C48.6623 73.3176 48.4894 73.6264 48.2993 73.8165L46.178 71.6952ZM46.178 74.1559L47.9429 75.9209L50.0643 73.7996L48.2993 72.0346L46.178 74.1559ZM47.9429 75.9209C48.2294 76.2073 48.5778 76.5666 48.9282 76.7984C49.1407 76.9391 49.4014 77.0695 49.718 77.1378C50.033 77.2058 50.3201 77.1944 50.5611 77.1582L50.1161 74.1914C50.1309 74.1892 50.2228 74.1777 50.3511 74.2054C50.481 74.2335 50.5636 74.2833 50.5838 74.2966C50.5908 74.3013 50.5586 74.2803 50.4583 74.1867C50.3598 74.0948 50.2402 73.9755 50.0643 73.7996L47.9429 75.9209ZM50.5369 77.1616C51.6737 77.0101 52.2239 76.1218 52.483 75.5275L49.7329 74.3287C49.6774 74.4561 49.6613 74.4458 49.7178 74.3893C49.7511 74.356 49.8069 74.3095 49.8874 74.2679C49.9697 74.2255 50.057 74.1991 50.1404 74.188L50.5369 77.1616ZM52.508 75.4666C52.4341 75.6585 52.2471 75.9663 51.8572 76.1454C51.4744 76.3214 51.127 76.2667 50.9391 76.204L51.8878 73.358C51.5641 73.2501 51.0923 73.1954 50.6047 73.4194C50.1103 73.6466 49.8383 74.0506 49.7079 74.3896L52.508 75.4666ZM50.9174 76.1966L52.2411 76.6605L53.2332 73.8293L51.9095 73.3654L50.9174 76.1966ZM47.0985 65.9947C47.2886 66.1848 47.4615 66.4937 47.4615 66.8856C47.4615 67.2776 47.2886 67.5865 47.0985 67.7766L44.9772 65.6553C44.6852 65.9472 44.4615 66.3749 44.4615 66.8856C44.4615 67.3964 44.6852 67.8241 44.9772 68.116L47.0985 65.9947ZM47.0985 67.7766L48.343 66.5321L46.2217 64.4108L44.9772 65.6553L47.0985 67.7766ZM48.343 66.5321C48.1529 66.7222 47.844 66.8951 47.452 66.8951C47.0601 66.8951 46.7512 66.7222 46.5611 66.5321L48.6824 64.4108C48.3905 64.1188 47.9628 63.8951 47.452 63.8951C46.9413 63.8951 46.5136 64.1188 46.2217 64.4108L48.343 66.5321ZM46.5611 66.5321L48.8917 68.8627L51.013 66.7414L48.6824 64.4108L46.5611 66.5321ZM48.8917 68.8627C49.0948 69.0658 49.7927 69.6389 50.7097 69.2671C51.5567 68.9237 51.709 68.11 51.7373 67.8546L48.7557 67.5233C48.7614 67.4715 48.8402 66.7879 49.5826 66.4869C50.3949 66.1576 50.957 66.6853 51.013 66.7414L48.8917 68.8627ZM51.7395 67.8334C51.77 67.5183 51.9191 67.1194 52.3594 66.6792L50.238 64.5578C49.3659 65.43 48.8588 66.4567 48.7535 67.5444L51.7395 67.8334ZM52.3594 66.6792C52.6706 66.3679 52.9894 66.2873 53.3111 66.3211C53.674 66.3593 54.0991 66.5578 54.458 66.9168L56.5794 64.7954C55.807 64.023 54.7669 63.4578 53.6251 63.3376C52.442 63.2131 51.2165 63.5793 50.238 64.5578L52.3594 66.6792ZM54.458 66.9168L57.8974 70.3561L60.0187 68.2348L56.5794 64.7954L54.458 66.9168ZM57.8974 70.3561C57.7073 70.166 57.5344 69.8572 57.5344 69.4652C57.5344 69.0732 57.7073 68.7643 57.8974 68.5742L60.0187 70.6955C60.3107 70.4036 60.5344 69.9759 60.5344 69.4652C60.5344 68.9544 60.3107 68.5267 60.0187 68.2348L57.8974 70.3561ZM57.8974 68.5742L56.6529 69.8187L58.7742 71.94L60.0187 70.6955L57.8974 68.5742ZM56.6529 69.8187C56.843 69.6286 57.1519 69.4557 57.5439 69.4557C57.9358 69.4557 58.2447 69.6286 58.4348 69.8187L56.3135 71.94C56.6054 72.232 57.0331 72.4557 57.5439 72.4557C58.0546 72.4557 58.4823 72.232 58.7742 71.94L56.6529 69.8187ZM58.4348 69.8187L54.9954 66.3794L52.8741 68.5007L56.3135 71.94L58.4348 69.8187ZM54.9954 66.3794C54.5493 65.9332 53.9281 65.61 53.2074 65.5953C52.4694 65.5802 51.7999 65.8922 51.2902 66.402L53.4115 68.5233C53.4219 68.5129 53.4042 68.5337 53.3517 68.5564C53.2976 68.5797 53.2263 68.5963 53.1462 68.5946C52.9799 68.5912 52.8904 68.5169 52.8741 68.5007L54.9954 66.3794ZM51.2902 66.402C50.5595 67.1327 50.1854 68.0602 50.2662 69.0435C50.3434 69.9833 50.8193 70.7903 51.426 71.397L53.5473 69.2757C53.3054 69.0338 53.2609 68.8566 53.2561 68.7979C53.254 68.7718 53.2566 68.7495 53.268 68.7203C53.2802 68.6889 53.3146 68.6202 53.4115 68.5233L51.2902 66.402ZM51.426 71.397L54.1413 74.1123L56.2626 71.991L53.5473 69.2757L51.426 71.397ZM54.1413 74.1123C53.9511 73.9222 53.7783 73.6133 53.7783 73.2213C53.7783 72.8293 53.9511 72.5205 54.1413 72.3304L56.2626 74.4517C56.5545 74.1597 56.7783 73.7321 56.7783 73.2213C56.7783 72.7105 56.5545 72.2829 56.2626 71.991L54.1413 74.1123ZM54.1413 72.3304L52.8968 73.5749L55.0181 75.6962L56.2626 74.4517L54.1413 72.3304ZM52.8968 73.5749C53.0869 73.3848 53.3957 73.2119 53.7877 73.2119C54.1797 73.2119 54.4885 73.3848 54.6787 73.5749L52.5573 75.6962C52.8493 75.9881 53.2769 76.2119 53.7877 76.2119C54.2985 76.2119 54.7261 75.9881 55.0181 75.6962L52.8968 73.5749ZM54.6787 73.5749L47.0985 65.9947L44.9772 68.116L52.5573 75.6962L54.6787 73.5749ZM55.9682 61.6504C56.1584 61.8405 56.3312 62.1494 56.3312 62.5414C56.3312 62.9333 56.1584 63.2422 55.9682 63.4323L53.8469 61.311C53.555 61.6029 53.3312 62.0306 53.3312 62.5414C53.3312 63.0521 53.555 63.4798 53.8469 63.7717L55.9682 61.6504ZM55.9682 63.4323L57.2128 62.1878L55.0914 60.0665L53.8469 61.311L55.9682 63.4323ZM57.2128 62.1878C57.0226 62.3779 56.7138 62.5508 56.3218 62.5508C55.9299 62.5508 55.621 62.3779 55.4308 62.1878L57.5522 60.0665C57.2602 59.7745 56.8325 59.5508 56.3218 59.5508C55.811 59.5508 55.3834 59.7745 55.0914 60.0665L57.2128 62.1878ZM55.4308 62.1878L60.7483 67.5052L62.8696 65.3839L57.5522 60.0665L55.4308 62.1878ZM60.7483 67.5052C60.5582 67.3151 60.3853 67.0063 60.3853 66.6143C60.3853 66.2223 60.5582 65.9135 60.7483 65.7233L62.8696 67.8447C63.1616 67.5527 63.3853 67.1251 63.3853 66.6143C63.3853 66.1035 63.1616 65.6759 62.8696 65.3839L60.7483 67.5052ZM60.7483 65.7233L59.5038 66.9678L61.6251 69.0892L62.8696 67.8447L60.7483 65.7233ZM59.5038 66.9678C59.6939 66.7777 60.0028 66.6049 60.3947 66.6049C60.7867 66.6049 61.0956 66.7777 61.2857 66.9678L59.1644 69.0892C59.4563 69.3811 59.884 69.6049 60.3947 69.6049C60.9055 69.6049 61.3332 69.3811 61.6251 69.0892L59.5038 66.9678ZM61.2857 66.9678L55.9682 61.6504L53.8469 63.7717L59.1644 69.0892L61.2857 66.9678ZM53.7055 59.3877C53.8956 59.5778 54.0685 59.8866 54.0685 60.2786C54.0685 60.6706 53.8956 60.9795 53.7055 61.1696L51.5842 59.0482C51.2922 59.3402 51.0685 59.7678 51.0685 60.2786C51.0685 60.7894 51.2922 61.217 51.5842 61.509L53.7055 59.3877ZM53.7055 61.1696L54.95 59.9251L52.8287 57.8037L51.5842 59.0483L53.7055 61.1696ZM54.95 59.9251C54.7599 60.1152 54.451 60.288 54.0591 60.288C53.6671 60.288 53.3582 60.1152 53.1681 59.9251L55.2894 57.8037C54.9975 57.5118 54.5698 57.288 54.0591 57.288C53.5483 57.288 53.1206 57.5118 52.8287 57.8037L54.95 59.9251ZM53.1681 59.9251L54.4126 61.1696L56.5339 59.0483L55.2894 57.8037L53.1681 59.9251ZM54.4126 61.1696C54.2225 60.9795 54.0496 60.6706 54.0496 60.2786C54.0496 59.8866 54.2225 59.5778 54.4126 59.3877L56.5339 61.509C56.8259 61.217 57.0496 60.7894 57.0496 60.2786C57.0496 59.7678 56.8259 59.3402 56.5339 59.0482L54.4126 61.1696ZM54.4126 59.3877L53.1681 60.6322L55.2894 62.7535L56.5339 61.509L54.4126 59.3877ZM53.1681 60.6322C53.3582 60.442 53.6671 60.2692 54.0591 60.2692C54.4511 60.2692 54.7599 60.4421 54.95 60.6322L52.8287 62.7535C53.1206 63.0454 53.5483 63.2692 54.059 63.2692C54.5698 63.2692 54.9975 63.0454 55.2894 62.7535L53.1681 60.6322ZM54.95 60.6322L53.7055 59.3877L51.5842 61.509L52.8287 62.7535L54.95 60.6322ZM58.8188 58.7999C59.0089 58.99 59.1817 59.2989 59.1817 59.6908C59.1817 60.0828 59.0089 60.3917 58.8188 60.5818L56.6975 58.4605C56.4055 58.7524 56.1817 59.1801 56.1817 59.6908C56.1817 60.2016 56.4055 60.6293 56.6975 60.9212L58.8188 58.7999ZM58.8188 60.5818L60.0633 59.3373L57.942 57.216L56.6975 58.4605L58.8188 60.5818ZM60.0633 59.3373C59.8732 59.5274 59.5643 59.7003 59.1723 59.7003C58.7804 59.7003 58.4715 59.5274 58.2814 59.3373L60.4027 57.216C60.1107 56.924 59.6831 56.7003 59.1723 56.7003C58.6616 56.7003 58.2339 56.924 57.942 57.216L60.0633 59.3373ZM58.2814 59.3373L58.3493 59.4052L60.4706 57.2838L60.4027 57.216L58.2814 59.3373ZM58.3493 59.4052C58.5524 59.6083 59.2503 60.1813 60.1672 59.8096C61.0143 59.4662 61.1665 58.6524 61.1949 58.397L58.2132 58.0657C58.219 58.0139 58.2977 57.3303 59.0401 57.0294C59.8524 56.7 60.4145 57.2278 60.4706 57.2838L58.3493 59.4052ZM61.1971 58.3758C61.2276 58.0607 61.3767 57.6618 61.8169 57.2216L59.6956 55.1003C58.8234 55.9725 58.3163 56.9991 58.211 58.0869L61.1971 58.3758ZM61.8169 57.2216C62.1282 56.9104 62.447 56.8297 62.7686 56.8636C63.1316 56.9018 63.5566 57.1002 63.9156 57.4592L66.0369 55.3379C65.2645 54.5655 64.2244 54.0002 63.0827 53.8801C61.8996 53.7555 60.6741 54.1218 59.6956 55.1003L61.8169 57.2216ZM63.9156 57.4592L67.355 60.8986L69.4763 58.7772L66.0369 55.3379L63.9156 57.4592ZM67.355 60.8986C67.1648 60.7084 66.992 60.3996 66.992 60.0076C66.992 59.6156 67.1648 59.3068 67.355 59.1167L69.4763 61.238C69.7682 60.946 69.992 60.5184 69.992 60.0076C69.992 59.4968 69.7682 59.0692 69.4763 58.7772L67.355 60.8986ZM67.355 59.1167L66.1105 60.3612L68.2318 62.4825L69.4763 61.238L67.355 59.1167ZM66.1105 60.3612C66.3006 60.1711 66.6094 59.9982 67.0014 59.9982C67.3934 59.9982 67.7023 60.1711 67.8924 60.3612L65.7711 62.4825C66.063 62.7744 66.4906 62.9982 67.0014 62.9982C67.5122 62.9982 67.9398 62.7744 68.2318 62.4825L66.1105 60.3612ZM67.8924 60.3612L64.453 56.9218L62.3317 59.0431L65.7711 62.4825L67.8924 60.3612ZM64.453 56.9218C64.0068 56.4756 63.3856 56.1524 62.6649 56.1377C61.927 56.1226 61.2575 56.4347 60.7478 56.9444L62.8691 59.0657C62.8795 59.0554 62.8617 59.0762 62.8093 59.0988C62.7552 59.1221 62.6838 59.1387 62.6037 59.1371C62.4374 59.1337 62.3479 59.0594 62.3317 59.0431L64.453 56.9218ZM60.7478 56.9444C60.017 57.6752 59.6429 58.6026 59.7237 59.586C59.8009 60.5257 60.2769 61.3328 60.8835 61.9394L63.0048 59.8181C62.763 59.5762 62.7185 59.399 62.7137 59.3403C62.7115 59.3142 62.7141 59.2919 62.7255 59.2628C62.7378 59.2314 62.7722 59.1626 62.8691 59.0657L60.7478 56.9444ZM60.8835 61.9394L63.5988 64.6547L65.7201 62.5334L63.0048 59.8181L60.8835 61.9394ZM63.5988 64.6547C63.4087 64.4646 63.2358 64.1557 63.2358 63.7638C63.2358 63.3718 63.4087 63.0629 63.5988 62.8728L65.7201 64.9941C66.0121 64.7022 66.2358 64.2745 66.2358 63.7638C66.2358 63.253 66.0121 62.8253 65.7201 62.5334L63.5988 64.6547ZM63.5988 62.8728L62.3543 64.1173L64.4756 66.2386L65.7201 64.9941L63.5988 62.8728ZM62.3543 64.1173C62.5444 63.9272 62.8533 63.7543 63.2453 63.7543C63.6372 63.7543 63.9461 63.9272 64.1362 64.1173L62.0149 66.2386C62.3068 66.5306 62.7345 66.7543 63.2453 66.7543C63.756 66.7543 64.1837 66.5306 64.4756 66.2386L62.3543 64.1173ZM64.1362 64.1173L58.8188 58.7999L56.6975 60.9212L62.0149 66.2386L64.1362 64.1173ZM67.0719 50.4392C66.3861 51.1251 66.0174 52.0277 66.1006 53.0047C66.1808 53.9449 66.662 54.7754 67.3208 55.4342L69.4422 53.3129C69.1394 53.0101 69.0945 52.8054 69.0898 52.7499C69.0876 52.7238 69.0908 52.7082 69.0969 52.6923C69.1038 52.6744 69.1257 52.6281 69.1933 52.5605L67.0719 50.4392ZM67.3208 55.4342C67.9539 56.0673 68.7638 56.5705 69.7069 56.6651C70.7032 56.765 71.6146 56.3844 72.3158 55.6831L70.1945 53.5618C70.1105 53.6458 70.0568 53.67 70.0417 53.6758C70.03 53.6803 70.023 53.6818 70.0062 53.6801C69.9621 53.6757 69.7595 53.6302 69.4422 53.3129L67.3208 55.4342ZM72.3158 55.6831C73.0053 54.9937 73.3932 54.0913 73.318 53.1016C73.2455 52.1481 72.7596 51.3129 72.1009 50.6542L69.9796 52.7755C70.2826 53.0785 70.3228 53.2784 70.3266 53.3291C70.3285 53.3534 70.3258 53.3718 70.3164 53.3954C70.306 53.4217 70.2764 53.4799 70.1945 53.5618L72.3158 55.6831ZM72.1009 50.6542C71.4449 49.9982 70.6133 49.502 69.6541 49.4287C68.6549 49.3522 67.7575 49.7536 67.0719 50.4392L69.1933 52.5605C69.2825 52.4713 69.3446 52.4397 69.3707 52.4292C69.3933 52.42 69.4073 52.4186 69.4254 52.4199C69.4646 52.4229 69.6626 52.4585 69.9796 52.7755L72.1009 50.6542ZM67.4736 51.5649C67.8351 51.2034 68.2423 51.0047 68.6552 50.9248L68.0852 47.9794C67.0952 48.171 66.1447 48.6512 65.3523 49.4436L67.4736 51.5649ZM68.6309 50.9293C68.8842 50.8846 69.4991 50.7239 69.8582 50.1001C70.0632 49.7442 70.1241 49.3243 70.027 48.9229C69.9377 48.5533 69.7388 48.2921 69.5779 48.1312L67.4566 50.2525C67.3523 50.1482 67.1874 49.9436 67.1111 49.6281C67.0271 49.2808 67.0803 48.9125 67.2584 48.6032C67.5637 48.0728 68.0485 47.9857 68.1095 47.9749L68.6309 50.9293ZM69.5779 48.1312L69.5326 48.0859L67.4114 50.2073L67.4567 50.2526L69.5779 48.1312ZM69.5327 48.086C69.7228 48.2761 69.8956 48.585 69.8956 48.9769C69.8956 49.3689 69.7228 49.6778 69.5327 49.8679L67.4114 47.7466C67.1194 48.0385 66.8956 48.4662 66.8956 48.9769C66.8956 49.4877 67.1194 49.9153 67.4114 50.2073L69.5327 48.086ZM69.5327 49.8679L70.7772 48.6234L68.6559 46.5021L67.4114 47.7466L69.5327 49.8679ZM70.7772 48.6234C70.5871 48.8135 70.2782 48.9863 69.8862 48.9863C69.4943 48.9863 69.1854 48.8135 68.9953 48.6234L71.1166 46.5021C70.8247 46.2101 70.397 45.9863 69.8862 45.9863C69.3755 45.9863 68.9478 46.2101 68.6559 46.5021L70.7772 48.6234ZM68.9953 48.6234L73.8828 53.5109L76.0041 51.3896L71.1166 46.5021L68.9953 48.6234ZM73.8828 53.5109C74.7839 54.412 75.0347 55.985 73.6678 57.3519L75.7892 59.4732C78.3595 56.9029 78.0446 53.4301 76.0041 51.3896L73.8828 53.5109ZM73.6678 57.3519C72.4848 58.5349 71.3715 58.5393 71.0571 58.5215L70.8876 61.5167C71.7724 61.5668 73.8269 61.4354 75.7892 59.4732L73.6678 57.3519ZM70.9724 58.5191C71.2217 58.5191 71.6175 58.6097 71.9267 58.9646C72.2215 59.3031 72.2577 59.6765 72.2417 59.8852L69.2505 59.6552C69.2231 60.011 69.2933 60.5089 69.6645 60.935C70.05 61.3776 70.5646 61.5191 70.9724 61.5191V58.5191ZM72.2447 59.8335L72.3126 58.227L69.3153 58.1003L69.2474 59.7069L72.2447 59.8335ZM72.3095 58.2787C72.2991 58.4146 72.2441 58.7474 71.9439 59.0475C71.591 59.4004 71.148 59.4648 70.8507 59.4223L71.275 56.4525C70.8194 56.3874 70.2575 56.4913 69.8226 56.9262C69.4404 57.3084 69.3401 57.7656 69.3184 58.0486L72.3095 58.2787ZM70.9977 59.436C71.2541 59.4471 71.8027 59.4806 72.4415 59.3105C73.1041 59.1342 73.7802 58.7669 74.4315 58.1156L72.3102 55.9943C72.0111 56.2933 71.7935 56.3786 71.6698 56.4115C71.5223 56.4508 71.392 56.4503 71.128 56.4388L70.9977 59.436ZM74.4315 58.1156C75.9511 56.596 75.8903 54.4436 74.8162 53.3695L72.6949 55.4908C72.598 55.3939 72.5825 55.3288 72.589 55.3481C72.5918 55.3563 72.6015 55.3925 72.599 55.4513C72.595 55.5486 72.5565 55.7479 72.3102 55.9943L74.4315 58.1156ZM74.8162 53.3695L74.6578 53.2111L72.5365 55.3324L72.6949 55.4908L74.8162 53.3695ZM74.6578 53.2111C74.4048 52.9581 73.7655 52.4987 72.9319 52.7766C72.1173 53.0481 71.874 53.7758 71.8145 54.1129L74.7688 54.6342C74.7433 54.779 74.5848 55.3879 73.8806 55.6226C73.1572 55.8638 72.6537 55.4496 72.5365 55.3324L74.6578 53.2111ZM71.814 54.1156C71.7432 54.5212 71.551 54.9206 71.1901 55.2815L73.3115 57.4028C74.1045 56.6097 74.5912 55.6514 74.7693 54.6316L71.814 54.1156ZM71.1901 55.2815C70.3145 56.1572 68.9401 56.205 67.7451 55.01L65.6238 57.1313C67.755 59.2625 71.0419 59.6724 73.3115 57.4028L71.1901 55.2815ZM67.7451 55.01C66.5373 53.8022 66.6241 52.4144 67.4736 51.5649L65.3523 49.4436C63.147 51.6488 63.4375 54.945 65.6238 57.1313L67.7451 55.01ZM75.673 49.9784C75.8227 49.957 76.2132 49.9404 76.5985 50.2293C76.9837 50.5183 77.0772 50.8978 77.0985 51.0475L74.1287 51.4718C74.1727 51.7799 74.3227 52.2725 74.7985 52.6293C75.2742 52.9862 75.7892 52.9922 76.0973 52.9482L75.673 49.9784ZM77.1006 51.0628L76.897 49.5242L73.9229 49.9178L74.1266 51.4565L77.1006 51.0628ZM76.9056 49.6059C76.9186 49.7759 76.8993 50.1096 76.6556 50.438C76.4032 50.7783 76.0653 50.9043 75.8489 50.9404L75.3557 47.9812C75.0036 48.0399 74.5639 48.2225 74.2463 48.6504C73.9377 49.0665 73.89 49.5189 73.9144 49.836L76.9056 49.6059ZM75.9136 50.9281C76.722 50.7566 77.8798 50.4812 78.9483 49.4127L76.827 47.2914C76.4021 47.7163 75.976 47.8481 75.291 47.9934L75.9136 50.9281ZM78.9483 49.4127C79.2631 49.0979 79.6839 48.639 79.8704 48.0636C79.9796 47.7267 80.0172 47.3278 79.8996 46.9099C79.7862 46.507 79.5628 46.2088 79.3556 46.0016L77.2343 48.1229C77.1912 48.0798 77.0753 47.9484 77.0118 47.7227C76.944 47.4819 76.9738 47.2703 77.0165 47.1386C77.052 47.0291 77.0899 46.9924 77.0529 47.0419C77.0196 47.0866 76.9518 47.1666 76.827 47.2914L78.9483 49.4127ZM79.3556 46.0016C79.11 45.7559 78.7875 45.5524 78.3908 45.458C78.0061 45.3665 77.6467 45.4001 77.3502 45.4751C76.8064 45.6126 76.3026 45.9351 75.8731 46.2541L77.6621 48.6624C77.8266 48.5401 77.9463 48.4633 78.0292 48.4171C78.1158 48.3688 78.1297 48.3724 78.0857 48.3835C78.0353 48.3963 77.8909 48.4228 77.6964 48.3766C77.4899 48.3274 77.3329 48.2215 77.2343 48.1229L79.3556 46.0016ZM75.8517 46.2704C75.0294 46.9044 74.5014 47.0701 74.2196 47.0908C74.0164 47.1057 73.8502 47.0581 73.6309 46.8388L71.5096 48.9601C72.2633 49.7138 73.2567 50.1696 74.4394 50.0827C75.5435 50.0016 76.6277 49.4602 77.6836 48.6461L75.8517 46.2704ZM73.6309 46.8388C73.5461 46.754 73.0619 45.9767 74.2871 44.7514L72.1658 42.6301C70.1326 44.6632 69.9199 47.3705 71.5096 48.9601L73.6309 46.8388ZM74.2871 44.7514C74.9371 44.1014 75.8006 43.8317 76.433 43.651L75.6088 40.7664C74.9741 40.9477 73.4164 41.3795 72.1658 42.6301L74.2871 44.7514ZM76.5594 43.6087C76.3796 43.6778 75.9534 43.7768 75.4905 43.5255C75.0524 43.2877 74.9106 42.9116 74.8728 42.7792L77.7574 41.955C77.6743 41.6642 77.459 41.1806 76.9218 40.889C76.36 40.584 75.8093 40.683 75.4824 40.8087L76.5594 43.6087ZM74.8554 42.7125L75.2061 44.1946L78.1255 43.5037L77.7748 42.0216L74.8554 42.7125ZM75.2042 44.1865C75.1665 44.0231 75.1283 43.6594 75.3559 43.2725C75.5929 42.8697 75.9542 42.7176 76.1588 42.6704L76.8334 45.5936C77.185 45.5124 77.6482 45.2925 77.9417 44.7935C78.2259 44.3105 78.199 43.8224 78.1274 43.5119L75.2042 44.1865ZM76.0651 42.6953C75.4906 42.8676 74.3528 43.1584 73.5234 43.9878L75.6447 46.1091C75.8336 45.9202 76.1439 45.8037 76.9271 45.5687L76.0651 42.6953ZM73.5234 43.9878C73.1114 44.3998 72.7548 44.8919 72.6071 45.4638C72.4467 46.0849 72.5443 46.827 73.0935 47.3762L75.2148 45.2549C75.3671 45.4071 75.468 45.5963 75.5117 45.7914C75.554 45.9806 75.5333 46.1306 75.5117 46.2141C75.4743 46.359 75.4345 46.3193 75.6447 46.1091L73.5234 43.9878ZM73.0935 47.3762C73.2564 47.5391 73.525 47.7698 73.9136 47.9031C74.3333 48.047 74.7371 48.0256 75.0787 47.9337C75.6223 47.7873 76.1381 47.4141 76.5451 47.1101L74.75 44.7064C74.5396 44.8636 74.3993 44.9599 74.3035 45.0183C74.1991 45.0818 74.2108 45.0605 74.2988 45.0368C74.4197 45.0043 74.6383 44.9801 74.8869 45.0653C74.9964 45.1029 75.0788 45.1509 75.1328 45.1885C75.1843 45.2243 75.2121 45.2522 75.2148 45.2549L73.0935 47.3762ZM76.5587 47.0998C77.2039 46.6064 77.7474 46.3822 78.1289 46.3319C78.4499 46.2896 78.6414 46.3622 78.8182 46.539L80.9396 44.4177C80.0302 43.5084 78.8755 43.2076 77.737 43.3576C76.659 43.4997 75.6299 44.0335 74.7364 44.7167L76.5587 47.0998ZM78.8182 46.539C79.0167 46.7375 79.0847 46.9452 79.0475 47.2167C79.0039 47.5355 78.791 48.0427 78.1847 48.649L80.306 50.7703C81.227 49.8493 81.8626 48.7725 82.0198 47.6234C82.1835 46.427 81.8045 45.2827 80.9396 44.4177L78.8182 46.539ZM78.1847 48.649C77.2586 49.5751 76.1994 49.8591 75.5646 49.9979L76.2057 52.9286C77.019 52.7507 78.7657 52.3106 80.306 50.7703L78.1847 48.649ZM82 84V122H85V84H82ZM85.0607 83.9393L72.0607 70.9393L69.9394 73.0607L82.9394 86.0607L85.0607 83.9393Z" fill="black"/>
</svg>
